<?xml version="1.0" encoding="utf-8" standalone="no"?>
<!DOCTYPE svg PUBLIC "-//W3C//DTD SVG 1.1//EN"
  "http://www.w3.org/Graphics/SVG/1.1/DTD/svg11.dtd">
<svg xmlns:xlink="http://www.w3.org/1999/xlink" width="960pt" height="540pt" viewBox="0 0 960 540" xmlns="http://www.w3.org/2000/svg" version="1.1">
 <metadata>
  <rdf:RDF xmlns:dc="http://purl.org/dc/elements/1.1/" xmlns:cc="http://creativecommons.org/ns#" xmlns:rdf="http://www.w3.org/1999/02/22-rdf-syntax-ns#">
   <cc:Work>
    <dc:type rdf:resource="http://purl.org/dc/dcmitype/StillImage"/>
    <dc:date>2026-07-28T21:02:27.966833</dc:date>
    <dc:format>image/svg+xml</dc:format>
    <dc:creator>
     <cc:Agent>
      <dc:title>Matplotlib v3.9.2, https://matplotlib.org/</dc:title>
     </cc:Agent>
    </dc:creator>
   </cc:Work>
  </rdf:RDF>
 </metadata>
 <defs>
  <style type="text/css">*{stroke-linejoin: round; stroke-linecap: butt}</style>
 </defs>
 <g id="figure_1">
  <g id="patch_1">
   <path d="M 0 540 
L 960 540 
L 960 0 
L 0 0 
z
" style="fill: #ffffff"/>
  </g>
  <g id="axes_1">
   <g id="patch_2">
    <path d="M 224.16 177.8976 
L 358.08 177.8976 
Q 367.008 177.8976 367.008 172.908 
L 367.008 114.696 
Q 367.008 109.7064 358.08 109.7064 
L 224.16 109.7064 
Q 215.232 109.7064 215.232 114.696 
L 215.232 172.908 
Q 215.232 177.8976 224.16 177.8976 
z
" clip-path="url(#pe3507b6ea9)" style="fill: #e7f1f1; stroke: #2f7e83; stroke-width: 1.5; stroke-linejoin: miter"/>
   </g>
   <g id="patch_3">
    <path d="M 432.48 177.8976 
L 566.4 177.8976 
Q 575.328 177.8976 575.328 172.908 
L 575.328 114.696 
Q 575.328 109.7064 566.4 109.7064 
L 432.48 109.7064 
Q 423.552 109.7064 423.552 114.696 
L 423.552 172.908 
Q 423.552 177.8976 432.48 177.8976 
z
" clip-path="url(#pe3507b6ea9)" style="fill: #e7f1f1; stroke: #2f7e83; stroke-width: 1.5; stroke-linejoin: miter"/>
   </g>
   <g id="patch_4">
    <path d="M 640.8 177.8976 
L 774.72 177.8976 
Q 783.648 177.8976 783.648 172.908 
L 783.648 114.696 
Q 783.648 109.7064 774.72 109.7064 
L 640.8 109.7064 
Q 631.872 109.7064 631.872 114.696 
L 631.872 172.908 
Q 631.872 177.8976 640.8 177.8976 
z
" clip-path="url(#pe3507b6ea9)" style="fill: #e7f1f1; stroke: #2f7e83; stroke-width: 1.5; stroke-linejoin: miter"/>
   </g>
   <g id="patch_5">
    <path d="M 157.2 402.4296 
L 268.8 402.4296 
Q 277.728 402.4296 277.728 397.44 
L 277.728 335.07 
Q 277.728 330.0804 268.8 330.0804 
L 157.2 330.0804 
Q 148.272 330.0804 148.272 335.07 
L 148.272 397.44 
Q 148.272 402.4296 157.2 402.4296 
z
" clip-path="url(#pe3507b6ea9)" style="fill: #ffffff; stroke: #903163; stroke-width: 1.5; stroke-linejoin: miter"/>
   </g>
   <g id="patch_6">
    <path d="M 291.12 402.4296 
L 402.72 402.4296 
Q 411.648 402.4296 411.648 397.44 
L 411.648 335.07 
Q 411.648 330.0804 402.72 330.0804 
L 291.12 330.0804 
Q 282.192 330.0804 282.192 335.07 
L 282.192 397.44 
Q 282.192 402.4296 291.12 402.4296 
z
" clip-path="url(#pe3507b6ea9)" style="fill: #ffffff; stroke: #903163; stroke-width: 1.5; stroke-linejoin: miter"/>
   </g>
   <g id="patch_7">
    <path d="M 425.04 402.4296 
L 536.64 402.4296 
Q 545.568 402.4296 545.568 397.44 
L 545.568 335.07 
Q 545.568 330.0804 536.64 330.0804 
L 425.04 330.0804 
Q 416.112 330.0804 416.112 335.07 
L 416.112 397.44 
Q 416.112 402.4296 425.04 402.4296 
z
" clip-path="url(#pe3507b6ea9)" style="fill: #ffffff; stroke: #903163; stroke-width: 1.5; stroke-linejoin: miter"/>
   </g>
   <g id="patch_8">
    <path d="M 558.96 402.4296 
L 670.56 402.4296 
Q 679.488 402.4296 679.488 397.44 
L 679.488 335.07 
Q 679.488 330.0804 670.56 330.0804 
L 558.96 330.0804 
Q 550.032 330.0804 550.032 335.07 
L 550.032 397.44 
Q 550.032 402.4296 558.96 402.4296 
z
" clip-path="url(#pe3507b6ea9)" style="fill: #ffffff; stroke: #903163; stroke-width: 1.5; stroke-linejoin: miter"/>
   </g>
   <g id="patch_9">
    <path d="M 692.88 402.4296 
L 804.48 402.4296 
Q 813.408 402.4296 813.408 397.44 
L 813.408 335.07 
Q 813.408 330.0804 804.48 330.0804 
L 692.88 330.0804 
Q 683.952 330.0804 683.952 335.07 
L 683.952 397.44 
Q 683.952 402.4296 692.88 402.4296 
z
" clip-path="url(#pe3507b6ea9)" style="fill: #ffffff; stroke: #903163; stroke-width: 1.5; stroke-linejoin: miter"/>
   </g>
   <g id="text_1">
    <text style="fill: #3d3d3d; font: 17px 'Calibri', 'Arial', 'DejaVu Sans', sans-serif" transform="translate(263.398047 139.622922)">TIEMPO</text>
    <text style="fill: #3d3d3d; font: 17px 'Calibri', 'Arial', 'DejaVu Sans', sans-serif" transform="translate(287.795703 156.520922)">s</text>
   </g>
   <g id="text_2">
    <text style="fill: #3d3d3d; font: 17px 'Calibri', 'Arial', 'DejaVu Sans', sans-serif" transform="translate(462.611094 139.622922)">LONGITUD</text>
    <text style="fill: #3d3d3d; font: 17px 'Calibri', 'Arial', 'DejaVu Sans', sans-serif" transform="translate(492.649297 156.520922)">m</text>
   </g>
   <g id="text_3">
    <text style="fill: #3d3d3d; font: 17px 'Calibri', 'Arial', 'DejaVu Sans', sans-serif" transform="translate(686.750391 139.618937)">MASA</text>
    <text style="fill: #3d3d3d; font: 17px 'Calibri', 'Arial', 'DejaVu Sans', sans-serif" transform="translate(699.894844 156.516937)">kg</text>
   </g>
   <g id="text_4">
    <text style="fill: #3d3d3d; font: 16px 'Calibri', 'Arial', 'DejaVu Sans', sans-serif" transform="translate(188.995 362.32175)">rapidez</text>
    <text style="fill: #3d3d3d; font: 16px 'Calibri', 'Arial', 'DejaVu Sans', sans-serif" transform="translate(200.39 378.22575)">m/s</text>
   </g>
   <g id="text_5">
    <text style="fill: #3d3d3d; font: 16px 'Calibri', 'Arial', 'DejaVu Sans', sans-serif" transform="translate(309.64625 362.15825)">aceleración</text>
    <text style="fill: #3d3d3d; font: 16px 'Calibri', 'Arial', 'DejaVu Sans', sans-serif" transform="translate(331.6225 378.38925)">m/s²</text>
   </g>
   <g id="text_6">
    <text style="fill: #3d3d3d; font: 16px 'Calibri', 'Arial', 'DejaVu Sans', sans-serif" transform="translate(460.43375 362.32175)">fuerza</text>
    <text style="fill: #3d3d3d; font: 16px 'Calibri', 'Arial', 'DejaVu Sans', sans-serif" transform="translate(475.67625 378.22575)">N</text>
   </g>
   <g id="text_7">
    <text style="fill: #3d3d3d; font: 16px 'Calibri', 'Arial', 'DejaVu Sans', sans-serif" transform="translate(590.4 362.35675)">presión</text>
    <text style="fill: #3d3d3d; font: 16px 'Calibri', 'Arial', 'DejaVu Sans', sans-serif" transform="translate(606.795 378.26075)">Pa</text>
   </g>
   <g id="text_8">
    <text style="fill: #3d3d3d; font: 16px 'Calibri', 'Arial', 'DejaVu Sans', sans-serif" transform="translate(719.0875 361.7645)">densidad</text>
    <text style="fill: #3d3d3d; font: 16px 'Calibri', 'Arial', 'DejaVu Sans', sans-serif" transform="translate(729.12 378.7755)">kg/m³</text>
   </g>
   <g id="patch_10">
    <path d="M 290.25102 174.711835 
Q 252.059882 253.989245 214.451023 332.057958 
" style="fill: none; stroke: #969fa7; stroke-width: 1.2; stroke-linecap: round"/>
    <path d="M 220.111568 327.680947 
L 214.451023 332.057958 
L 214.345742 324.903315 
z
" style="fill: #969fa7; stroke: #969fa7; stroke-width: 1.2; stroke-linecap: round"/>
   </g>
   <g id="patch_11">
    <path d="M 497.698265 173.894047 
Q 356.220135 253.988924 215.909531 333.42283 
" style="fill: none; stroke: #969fa7; stroke-width: 1.2; stroke-linecap: round"/>
    <path d="M 223.055464 333.054529 
L 215.909531 333.42283 
L 219.90245 327.485103 
z
" style="fill: #969fa7; stroke: #969fa7; stroke-width: 1.2; stroke-linecap: round"/>
   </g>
   <g id="patch_12">
    <path d="M 291.771352 174.800913 
Q 319.020436 253.990266 345.832982 331.910984 
" style="fill: none; stroke: #969fa7; stroke-width: 1.2; stroke-linecap: round"/>
    <path d="M 346.776446 324.818039 
L 345.832982 331.910984 
L 340.724704 326.900445 
z
" style="fill: #969fa7; stroke: #969fa7; stroke-width: 1.2; stroke-linecap: round"/>
   </g>
   <g id="patch_13">
    <path d="M 498.069238 174.365419 
Q 423.180759 253.988193 349.211465 332.633674 
" style="fill: none; stroke: #969fa7; stroke-width: 1.2; stroke-linecap: round"/>
    <path d="M 355.927207 330.164097 
L 349.211465 332.633674 
L 351.265248 325.779334 
z
" style="fill: #969fa7; stroke: #969fa7; stroke-width: 1.2; stroke-linecap: round"/>
   </g>
   <g id="patch_14">
    <path d="M 706.136076 174.068492 
Q 594.301065 253.988239 483.557618 333.127931 
" style="fill: none; stroke: #969fa7; stroke-width: 1.2; stroke-linecap: round"/>
    <path d="M 490.625226 332.01038 
L 483.557618 333.127931 
L 486.904142 326.803314 
z
" style="fill: #969fa7; stroke: #969fa7; stroke-width: 1.2; stroke-linecap: round"/>
   </g>
   <g id="patch_15">
    <path d="M 348.918501 335.07 
Q 413.878808 335.07 477.497475 335.07 
" style="fill: none; stroke: #969fa7; stroke-width: 1.2; stroke-linecap: round"/>
    <path d="M 471.097475 331.87 
L 477.497475 335.07 
L 471.097475 338.27 
z
" style="fill: #969fa7; stroke: #969fa7; stroke-width: 1.2; stroke-linecap: round"/>
   </g>
   <g id="patch_16">
    <path d="M 482.650503 396.596802 
Q 547.800143 366.254933 611.733573 336.479485 
" style="fill: none; stroke: #969fa7; stroke-width: 1.2; stroke-linecap: round"/>
    <path d="M 604.580919 336.280638 
L 611.733573 336.479485 
L 607.282903 342.0823 
z
" style="fill: #969fa7; stroke: #969fa7; stroke-width: 1.2; stroke-linecap: round"/>
   </g>
   <g id="patch_17">
    <path d="M 500.599605 174.538627 
Q 557.100604 253.98985 612.824069 332.347711 
" style="fill: none; stroke: #969fa7; stroke-width: 1.2; stroke-linecap: round"/>
    <path d="M 611.722835 325.277542 
L 612.824069 332.347711 
L 606.507194 328.986597 
z
" style="fill: #969fa7; stroke: #969fa7; stroke-width: 1.2; stroke-linecap: round"/>
   </g>
   <g id="patch_18">
    <path d="M 708.248897 174.845452 
Q 728.219836 253.98835 747.862515 331.830384 
" style="fill: none; stroke: #969fa7; stroke-width: 1.2; stroke-linecap: round"/>
    <path d="M 749.399362 324.841958 
L 747.862515 331.830384 
L 743.193882 326.407851 
z
" style="fill: #969fa7; stroke: #969fa7; stroke-width: 1.2; stroke-linecap: round"/>
   </g>
   <g id="patch_19">
    <path d="M 501.117167 173.999209 
Q 624.061865 253.990214 745.881995 333.249546 
" style="fill: none; stroke: #969fa7; stroke-width: 1.2; stroke-linecap: round"/>
    <path d="M 742.262633 327.077008 
L 745.881995 333.249546 
L 738.772348 332.441512 
z
" style="fill: #969fa7; stroke: #969fa7; stroke-width: 1.2; stroke-linecap: round"/>
   </g>
   <g id="text_9">
    <text style="fill: #4d1434; font: 18px 'Calibri', 'Arial', 'DejaVu Sans', sans-serif; text-anchor: middle" x="492" y="264.384" transform="rotate(-0 492 264.384)">las magnitudes derivadas se definen mediante relaciones</text>
   </g>
  </g>
 </g>
 <defs>
  <clipPath id="pe3507b6ea9">
   <rect x="120" y="64.8" width="744" height="415.8"/>
  </clipPath>
 </defs>
</svg>
