<?xml version="1.0" encoding="utf-8" standalone="no"?>
<!DOCTYPE svg PUBLIC "-//W3C//DTD SVG 1.1//EN"
  "http://www.w3.org/Graphics/SVG/1.1/DTD/svg11.dtd">
<svg xmlns:xlink="http://www.w3.org/1999/xlink" width="921.6pt" height="518.4pt" viewBox="0 0 921.6 518.4" xmlns="http://www.w3.org/2000/svg" version="1.1">
 <metadata>
  <rdf:RDF xmlns:dc="http://purl.org/dc/elements/1.1/" xmlns:cc="http://creativecommons.org/ns#" xmlns:rdf="http://www.w3.org/1999/02/22-rdf-syntax-ns#">
   <cc:Work>
    <dc:type rdf:resource="http://purl.org/dc/dcmitype/StillImage"/>
    <dc:date>2026-08-11T23:43:06.424555</dc:date>
    <dc:format>image/svg+xml</dc:format>
    <dc:creator>
     <cc:Agent>
      <dc:title>Matplotlib v3.9.2, https://matplotlib.org/</dc:title>
     </cc:Agent>
    </dc:creator>
   </cc:Work>
  </rdf:RDF>
 </metadata>
 <defs>
  <style type="text/css">*{stroke-linejoin: round; stroke-linecap: butt}</style>
 </defs>
 <g id="figure_1">
  <g id="patch_1">
   <path d="M 0 518.4 
L 921.6 518.4 
L 921.6 0 
L 0 0 
z
" style="fill: #ffffff"/>
  </g>
  <g id="axes_1">
   <g id="line2d_1">
    <path d="M 150.912 86.15808 
L 365.184 86.15808 
" clip-path="url(#p33f2adf988)" style="fill: none; stroke: #4d1434; stroke-width: 5"/>
   </g>
   <g id="line2d_2">
    <path d="M 372.3264 86.15808 
L 579.456 86.15808 
" clip-path="url(#p33f2adf988)" style="fill: none; stroke: #903163; stroke-width: 5"/>
   </g>
   <g id="line2d_3">
    <path d="M 586.5984 86.15808 
L 793.728 86.15808 
" clip-path="url(#p33f2adf988)" style="fill: none; stroke: #969fa7; stroke-width: 5"/>
   </g>
   <g id="text_1">
    <!-- Señal física y percepto -->
    <g style="fill: #3d3d3d" transform="translate(158.0544 119.404781) scale(0.25 -0.25)">
     <defs>
      <path id="DejaVuSans-Bold-53" d="M 3834 4519 
L 3834 3531 
Q 3450 3703 3084 3790 
Q 2719 3878 2394 3878 
Q 1963 3878 1756 3759 
Q 1550 3641 1550 3391 
Q 1550 3203 1689 3098 
Q 1828 2994 2194 2919 
L 2706 2816 
Q 3484 2659 3812 2340 
Q 4141 2022 4141 1434 
Q 4141 663 3683 286 
Q 3225 -91 2284 -91 
Q 1841 -91 1394 -6 
Q 947 78 500 244 
L 500 1259 
Q 947 1022 1364 901 
Q 1781 781 2169 781 
Q 2563 781 2772 912 
Q 2981 1044 2981 1288 
Q 2981 1506 2839 1625 
Q 2697 1744 2272 1838 
L 1806 1941 
Q 1106 2091 782 2419 
Q 459 2747 459 3303 
Q 459 4000 909 4375 
Q 1359 4750 2203 4750 
Q 2588 4750 2994 4692 
Q 3400 4634 3834 4519 
z
" transform="scale(0.015625)"/>
      <path id="DejaVuSans-Bold-65" d="M 4031 1759 
L 4031 1441 
L 1416 1441 
Q 1456 1047 1700 850 
Q 1944 653 2381 653 
Q 2734 653 3104 758 
Q 3475 863 3866 1075 
L 3866 213 
Q 3469 63 3072 -14 
Q 2675 -91 2278 -91 
Q 1328 -91 801 392 
Q 275 875 275 1747 
Q 275 2603 792 3093 
Q 1309 3584 2216 3584 
Q 3041 3584 3536 3087 
Q 4031 2591 4031 1759 
z
M 2881 2131 
Q 2881 2450 2695 2645 
Q 2509 2841 2209 2841 
Q 1884 2841 1681 2658 
Q 1478 2475 1428 2131 
L 2881 2131 
z
" transform="scale(0.015625)"/>
      <path id="DejaVuSans-Bold-f1" d="M 4056 2131 
L 4056 0 
L 2931 0 
L 2931 347 
L 2931 1631 
Q 2931 2084 2911 2256 
Q 2891 2428 2841 2509 
Q 2775 2619 2662 2680 
Q 2550 2741 2406 2741 
Q 2056 2741 1856 2470 
Q 1656 2200 1656 1722 
L 1656 0 
L 538 0 
L 538 3500 
L 1656 3500 
L 1656 2988 
Q 1909 3294 2193 3439 
Q 2478 3584 2822 3584 
Q 3428 3584 3742 3212 
Q 4056 2841 4056 2131 
z
M 2363 4263 
L 2191 4378 
Q 2178 4384 2159 4397 
Q 2013 4494 1934 4494 
Q 1822 4494 1762 4397 
Q 1703 4300 1703 4116 
L 1703 4091 
L 1269 4091 
Q 1269 4516 1430 4747 
Q 1591 4978 1881 4978 
Q 1994 4978 2108 4936 
Q 2222 4894 2350 4800 
L 2541 4666 
Q 2609 4619 2667 4594 
Q 2725 4569 2772 4569 
Q 2884 4569 2946 4669 
Q 3009 4769 3009 4947 
L 3009 4972 
L 3444 4972 
Q 3444 4547 3283 4315 
Q 3122 4084 2831 4084 
Q 2719 4084 2614 4121 
Q 2509 4159 2363 4263 
z
" transform="scale(0.015625)"/>
      <path id="DejaVuSans-Bold-61" d="M 2106 1575 
Q 1756 1575 1579 1456 
Q 1403 1338 1403 1106 
Q 1403 894 1545 773 
Q 1688 653 1941 653 
Q 2256 653 2472 879 
Q 2688 1106 2688 1447 
L 2688 1575 
L 2106 1575 
z
M 3816 1997 
L 3816 0 
L 2688 0 
L 2688 519 
Q 2463 200 2181 54 
Q 1900 -91 1497 -91 
Q 953 -91 614 226 
Q 275 544 275 1050 
Q 275 1666 698 1953 
Q 1122 2241 2028 2241 
L 2688 2241 
L 2688 2328 
Q 2688 2594 2478 2717 
Q 2269 2841 1825 2841 
Q 1466 2841 1156 2769 
Q 847 2697 581 2553 
L 581 3406 
Q 941 3494 1303 3539 
Q 1666 3584 2028 3584 
Q 2975 3584 3395 3211 
Q 3816 2838 3816 1997 
z
" transform="scale(0.015625)"/>
      <path id="DejaVuSans-Bold-6c" d="M 538 4863 
L 1656 4863 
L 1656 0 
L 538 0 
L 538 4863 
z
" transform="scale(0.015625)"/>
      <path id="DejaVuSans-Bold-20" transform="scale(0.015625)"/>
      <path id="DejaVuSans-Bold-66" d="M 2841 4863 
L 2841 4128 
L 2222 4128 
Q 1984 4128 1890 4042 
Q 1797 3956 1797 3744 
L 1797 3500 
L 2753 3500 
L 2753 2700 
L 1797 2700 
L 1797 0 
L 678 0 
L 678 2700 
L 122 2700 
L 122 3500 
L 678 3500 
L 678 3744 
Q 678 4316 997 4589 
Q 1316 4863 1984 4863 
L 2841 4863 
z
" transform="scale(0.015625)"/>
      <path id="DejaVuSans-Bold-ed" d="M 538 3500 
L 1656 3500 
L 1656 0 
L 538 0 
L 538 3500 
z
M 1594 5119 
L 2478 5119 
L 1325 3944 
L 713 3944 
L 1594 5119 
z
" transform="scale(0.015625)"/>
      <path id="DejaVuSans-Bold-73" d="M 3272 3391 
L 3272 2541 
Q 2913 2691 2578 2766 
Q 2244 2841 1947 2841 
Q 1628 2841 1473 2761 
Q 1319 2681 1319 2516 
Q 1319 2381 1436 2309 
Q 1553 2238 1856 2203 
L 2053 2175 
Q 2913 2066 3209 1816 
Q 3506 1566 3506 1031 
Q 3506 472 3093 190 
Q 2681 -91 1863 -91 
Q 1516 -91 1145 -36 
Q 775 19 384 128 
L 384 978 
Q 719 816 1070 734 
Q 1422 653 1784 653 
Q 2113 653 2278 743 
Q 2444 834 2444 1013 
Q 2444 1163 2330 1236 
Q 2216 1309 1875 1350 
L 1678 1375 
Q 931 1469 631 1722 
Q 331 1975 331 2491 
Q 331 3047 712 3315 
Q 1094 3584 1881 3584 
Q 2191 3584 2531 3537 
Q 2872 3491 3272 3391 
z
" transform="scale(0.015625)"/>
      <path id="DejaVuSans-Bold-69" d="M 538 3500 
L 1656 3500 
L 1656 0 
L 538 0 
L 538 3500 
z
M 538 4863 
L 1656 4863 
L 1656 3950 
L 538 3950 
L 538 4863 
z
" transform="scale(0.015625)"/>
      <path id="DejaVuSans-Bold-63" d="M 3366 3391 
L 3366 2478 
Q 3138 2634 2908 2709 
Q 2678 2784 2431 2784 
Q 1963 2784 1702 2511 
Q 1441 2238 1441 1747 
Q 1441 1256 1702 982 
Q 1963 709 2431 709 
Q 2694 709 2930 787 
Q 3166 866 3366 1019 
L 3366 103 
Q 3103 6 2833 -42 
Q 2563 -91 2291 -91 
Q 1344 -91 809 395 
Q 275 881 275 1747 
Q 275 2613 809 3098 
Q 1344 3584 2291 3584 
Q 2566 3584 2833 3536 
Q 3100 3488 3366 3391 
z
" transform="scale(0.015625)"/>
      <path id="DejaVuSans-Bold-79" d="M 78 3500 
L 1197 3500 
L 2138 1125 
L 2938 3500 
L 4056 3500 
L 2584 -331 
Q 2363 -916 2067 -1148 
Q 1772 -1381 1288 -1381 
L 641 -1381 
L 641 -647 
L 991 -647 
Q 1275 -647 1404 -556 
Q 1534 -466 1606 -231 
L 1638 -134 
L 78 3500 
z
" transform="scale(0.015625)"/>
      <path id="DejaVuSans-Bold-70" d="M 1656 506 
L 1656 -1331 
L 538 -1331 
L 538 3500 
L 1656 3500 
L 1656 2988 
Q 1888 3294 2169 3439 
Q 2450 3584 2816 3584 
Q 3463 3584 3878 3070 
Q 4294 2556 4294 1747 
Q 4294 938 3878 423 
Q 3463 -91 2816 -91 
Q 2450 -91 2169 54 
Q 1888 200 1656 506 
z
M 2400 2772 
Q 2041 2772 1848 2508 
Q 1656 2244 1656 1747 
Q 1656 1250 1848 986 
Q 2041 722 2400 722 
Q 2759 722 2948 984 
Q 3138 1247 3138 1747 
Q 3138 2247 2948 2509 
Q 2759 2772 2400 2772 
z
" transform="scale(0.015625)"/>
      <path id="DejaVuSans-Bold-72" d="M 3138 2547 
Q 2991 2616 2845 2648 
Q 2700 2681 2553 2681 
Q 2122 2681 1889 2404 
Q 1656 2128 1656 1613 
L 1656 0 
L 538 0 
L 538 3500 
L 1656 3500 
L 1656 2925 
Q 1872 3269 2151 3426 
Q 2431 3584 2822 3584 
Q 2878 3584 2943 3579 
Q 3009 3575 3134 3559 
L 3138 2547 
z
" transform="scale(0.015625)"/>
      <path id="DejaVuSans-Bold-74" d="M 1759 4494 
L 1759 3500 
L 2913 3500 
L 2913 2700 
L 1759 2700 
L 1759 1216 
Q 1759 972 1856 886 
Q 1953 800 2241 800 
L 2816 800 
L 2816 0 
L 1856 0 
Q 1194 0 917 276 
Q 641 553 641 1216 
L 641 2700 
L 84 2700 
L 84 3500 
L 641 3500 
L 641 4494 
L 1759 4494 
z
" transform="scale(0.015625)"/>
      <path id="DejaVuSans-Bold-6f" d="M 2203 2784 
Q 1831 2784 1636 2517 
Q 1441 2250 1441 1747 
Q 1441 1244 1636 976 
Q 1831 709 2203 709 
Q 2569 709 2762 976 
Q 2956 1244 2956 1747 
Q 2956 2250 2762 2517 
Q 2569 2784 2203 2784 
z
M 2203 3584 
Q 3106 3584 3614 3096 
Q 4122 2609 4122 1747 
Q 4122 884 3614 396 
Q 3106 -91 2203 -91 
Q 1297 -91 786 396 
Q 275 884 275 1747 
Q 275 2609 786 3096 
Q 1297 3584 2203 3584 
z
" transform="scale(0.015625)"/>
     </defs>
     <use xlink:href="#DejaVuSans-Bold-53"/>
     <use xlink:href="#DejaVuSans-Bold-65" x="72.021484"/>
     <use xlink:href="#DejaVuSans-Bold-f1" x="139.84375"/>
     <use xlink:href="#DejaVuSans-Bold-61" x="211.035156"/>
     <use xlink:href="#DejaVuSans-Bold-6c" x="278.515625"/>
     <use xlink:href="#DejaVuSans-Bold-20" x="312.792969"/>
     <use xlink:href="#DejaVuSans-Bold-66" x="347.607422"/>
     <use xlink:href="#DejaVuSans-Bold-ed" x="391.113281"/>
     <use xlink:href="#DejaVuSans-Bold-73" x="425.390625"/>
     <use xlink:href="#DejaVuSans-Bold-69" x="484.912109"/>
     <use xlink:href="#DejaVuSans-Bold-63" x="519.189453"/>
     <use xlink:href="#DejaVuSans-Bold-61" x="578.466797"/>
     <use xlink:href="#DejaVuSans-Bold-20" x="645.947266"/>
     <use xlink:href="#DejaVuSans-Bold-79" x="680.761719"/>
     <use xlink:href="#DejaVuSans-Bold-20" x="745.947266"/>
     <use xlink:href="#DejaVuSans-Bold-70" x="780.761719"/>
     <use xlink:href="#DejaVuSans-Bold-65" x="852.34375"/>
     <use xlink:href="#DejaVuSans-Bold-72" x="920.166016"/>
     <use xlink:href="#DejaVuSans-Bold-63" x="969.482422"/>
     <use xlink:href="#DejaVuSans-Bold-65" x="1028.759766"/>
     <use xlink:href="#DejaVuSans-Bold-70" x="1096.582031"/>
     <use xlink:href="#DejaVuSans-Bold-74" x="1168.164062"/>
     <use xlink:href="#DejaVuSans-Bold-6f" x="1215.966797"/>
    </g>
   </g>
   <g id="patch_2">
    <path d="M 186.624 346.415616 
L 372.3264 346.415616 
Q 380.89728 346.415616 380.89728 341.6256 
L 380.89728 169.98336 
Q 380.89728 165.193344 372.3264 165.193344 
L 186.624 165.193344 
Q 178.05312 165.193344 178.05312 169.98336 
L 178.05312 341.6256 
Q 178.05312 346.415616 186.624 346.415616 
z
" clip-path="url(#p33f2adf988)" style="fill: #e7f1f1; stroke: #2f7e83; stroke-width: 2; stroke-linejoin: miter"/>
   </g>
   <g id="patch_3">
    <path d="M 381.8496 346.415616 
L 567.552 346.415616 
Q 576.12288 346.415616 576.12288 341.6256 
L 576.12288 169.98336 
Q 576.12288 165.193344 567.552 165.193344 
L 381.8496 165.193344 
Q 373.27872 165.193344 373.27872 169.98336 
L 373.27872 341.6256 
Q 373.27872 346.415616 381.8496 346.415616 
z
" clip-path="url(#p33f2adf988)" style="fill: #f7f6f2; stroke: #903163; stroke-width: 2; stroke-linejoin: miter"/>
   </g>
   <g id="patch_4">
    <path d="M 577.0752 346.415616 
L 762.7776 346.415616 
Q 771.34848 346.415616 771.34848 341.6256 
L 771.34848 169.98336 
Q 771.34848 165.193344 762.7776 165.193344 
L 577.0752 165.193344 
Q 568.50432 165.193344 568.50432 169.98336 
L 568.50432 341.6256 
Q 568.50432 346.415616 577.0752 346.415616 
z
" clip-path="url(#p33f2adf988)" style="fill: #e7f1f1; stroke: #2f7e83; stroke-width: 2; stroke-linejoin: miter"/>
   </g>
   <g id="text_2">
    <!-- Esquema conceptual; no está a escala. -->
    <g style="fill: #969fa7" transform="translate(539.340344 443.41344) scale(0.13 -0.13)">
     <defs>
      <path id="DejaVuSans-45" d="M 628 4666 
L 3578 4666 
L 3578 4134 
L 1259 4134 
L 1259 2753 
L 3481 2753 
L 3481 2222 
L 1259 2222 
L 1259 531 
L 3634 531 
L 3634 0 
L 628 0 
L 628 4666 
z
" transform="scale(0.015625)"/>
      <path id="DejaVuSans-73" d="M 2834 3397 
L 2834 2853 
Q 2591 2978 2328 3040 
Q 2066 3103 1784 3103 
Q 1356 3103 1142 2972 
Q 928 2841 928 2578 
Q 928 2378 1081 2264 
Q 1234 2150 1697 2047 
L 1894 2003 
Q 2506 1872 2764 1633 
Q 3022 1394 3022 966 
Q 3022 478 2636 193 
Q 2250 -91 1575 -91 
Q 1294 -91 989 -36 
Q 684 19 347 128 
L 347 722 
Q 666 556 975 473 
Q 1284 391 1588 391 
Q 1994 391 2212 530 
Q 2431 669 2431 922 
Q 2431 1156 2273 1281 
Q 2116 1406 1581 1522 
L 1381 1569 
Q 847 1681 609 1914 
Q 372 2147 372 2553 
Q 372 3047 722 3315 
Q 1072 3584 1716 3584 
Q 2034 3584 2315 3537 
Q 2597 3491 2834 3397 
z
" transform="scale(0.015625)"/>
      <path id="DejaVuSans-71" d="M 947 1747 
Q 947 1113 1208 752 
Q 1469 391 1925 391 
Q 2381 391 2643 752 
Q 2906 1113 2906 1747 
Q 2906 2381 2643 2742 
Q 2381 3103 1925 3103 
Q 1469 3103 1208 2742 
Q 947 2381 947 1747 
z
M 2906 525 
Q 2725 213 2448 61 
Q 2172 -91 1784 -91 
Q 1150 -91 751 415 
Q 353 922 353 1747 
Q 353 2572 751 3078 
Q 1150 3584 1784 3584 
Q 2172 3584 2448 3432 
Q 2725 3281 2906 2969 
L 2906 3500 
L 3481 3500 
L 3481 -1331 
L 2906 -1331 
L 2906 525 
z
" transform="scale(0.015625)"/>
      <path id="DejaVuSans-75" d="M 544 1381 
L 544 3500 
L 1119 3500 
L 1119 1403 
Q 1119 906 1312 657 
Q 1506 409 1894 409 
Q 2359 409 2629 706 
Q 2900 1003 2900 1516 
L 2900 3500 
L 3475 3500 
L 3475 0 
L 2900 0 
L 2900 538 
Q 2691 219 2414 64 
Q 2138 -91 1772 -91 
Q 1169 -91 856 284 
Q 544 659 544 1381 
z
M 1991 3584 
L 1991 3584 
z
" transform="scale(0.015625)"/>
      <path id="DejaVuSans-65" d="M 3597 1894 
L 3597 1613 
L 953 1613 
Q 991 1019 1311 708 
Q 1631 397 2203 397 
Q 2534 397 2845 478 
Q 3156 559 3463 722 
L 3463 178 
Q 3153 47 2828 -22 
Q 2503 -91 2169 -91 
Q 1331 -91 842 396 
Q 353 884 353 1716 
Q 353 2575 817 3079 
Q 1281 3584 2069 3584 
Q 2775 3584 3186 3129 
Q 3597 2675 3597 1894 
z
M 3022 2063 
Q 3016 2534 2758 2815 
Q 2500 3097 2075 3097 
Q 1594 3097 1305 2825 
Q 1016 2553 972 2059 
L 3022 2063 
z
" transform="scale(0.015625)"/>
      <path id="DejaVuSans-6d" d="M 3328 2828 
Q 3544 3216 3844 3400 
Q 4144 3584 4550 3584 
Q 5097 3584 5394 3201 
Q 5691 2819 5691 2113 
L 5691 0 
L 5113 0 
L 5113 2094 
Q 5113 2597 4934 2840 
Q 4756 3084 4391 3084 
Q 3944 3084 3684 2787 
Q 3425 2491 3425 1978 
L 3425 0 
L 2847 0 
L 2847 2094 
Q 2847 2600 2669 2842 
Q 2491 3084 2119 3084 
Q 1678 3084 1418 2786 
Q 1159 2488 1159 1978 
L 1159 0 
L 581 0 
L 581 3500 
L 1159 3500 
L 1159 2956 
Q 1356 3278 1631 3431 
Q 1906 3584 2284 3584 
Q 2666 3584 2933 3390 
Q 3200 3197 3328 2828 
z
" transform="scale(0.015625)"/>
      <path id="DejaVuSans-61" d="M 2194 1759 
Q 1497 1759 1228 1600 
Q 959 1441 959 1056 
Q 959 750 1161 570 
Q 1363 391 1709 391 
Q 2188 391 2477 730 
Q 2766 1069 2766 1631 
L 2766 1759 
L 2194 1759 
z
M 3341 1997 
L 3341 0 
L 2766 0 
L 2766 531 
Q 2569 213 2275 61 
Q 1981 -91 1556 -91 
Q 1019 -91 701 211 
Q 384 513 384 1019 
Q 384 1609 779 1909 
Q 1175 2209 1959 2209 
L 2766 2209 
L 2766 2266 
Q 2766 2663 2505 2880 
Q 2244 3097 1772 3097 
Q 1472 3097 1187 3025 
Q 903 2953 641 2809 
L 641 3341 
Q 956 3463 1253 3523 
Q 1550 3584 1831 3584 
Q 2591 3584 2966 3190 
Q 3341 2797 3341 1997 
z
" transform="scale(0.015625)"/>
      <path id="DejaVuSans-20" transform="scale(0.015625)"/>
      <path id="DejaVuSans-63" d="M 3122 3366 
L 3122 2828 
Q 2878 2963 2633 3030 
Q 2388 3097 2138 3097 
Q 1578 3097 1268 2742 
Q 959 2388 959 1747 
Q 959 1106 1268 751 
Q 1578 397 2138 397 
Q 2388 397 2633 464 
Q 2878 531 3122 666 
L 3122 134 
Q 2881 22 2623 -34 
Q 2366 -91 2075 -91 
Q 1284 -91 818 406 
Q 353 903 353 1747 
Q 353 2603 823 3093 
Q 1294 3584 2113 3584 
Q 2378 3584 2631 3529 
Q 2884 3475 3122 3366 
z
" transform="scale(0.015625)"/>
      <path id="DejaVuSans-6f" d="M 1959 3097 
Q 1497 3097 1228 2736 
Q 959 2375 959 1747 
Q 959 1119 1226 758 
Q 1494 397 1959 397 
Q 2419 397 2687 759 
Q 2956 1122 2956 1747 
Q 2956 2369 2687 2733 
Q 2419 3097 1959 3097 
z
M 1959 3584 
Q 2709 3584 3137 3096 
Q 3566 2609 3566 1747 
Q 3566 888 3137 398 
Q 2709 -91 1959 -91 
Q 1206 -91 779 398 
Q 353 888 353 1747 
Q 353 2609 779 3096 
Q 1206 3584 1959 3584 
z
" transform="scale(0.015625)"/>
      <path id="DejaVuSans-6e" d="M 3513 2113 
L 3513 0 
L 2938 0 
L 2938 2094 
Q 2938 2591 2744 2837 
Q 2550 3084 2163 3084 
Q 1697 3084 1428 2787 
Q 1159 2491 1159 1978 
L 1159 0 
L 581 0 
L 581 3500 
L 1159 3500 
L 1159 2956 
Q 1366 3272 1645 3428 
Q 1925 3584 2291 3584 
Q 2894 3584 3203 3211 
Q 3513 2838 3513 2113 
z
" transform="scale(0.015625)"/>
      <path id="DejaVuSans-70" d="M 1159 525 
L 1159 -1331 
L 581 -1331 
L 581 3500 
L 1159 3500 
L 1159 2969 
Q 1341 3281 1617 3432 
Q 1894 3584 2278 3584 
Q 2916 3584 3314 3078 
Q 3713 2572 3713 1747 
Q 3713 922 3314 415 
Q 2916 -91 2278 -91 
Q 1894 -91 1617 61 
Q 1341 213 1159 525 
z
M 3116 1747 
Q 3116 2381 2855 2742 
Q 2594 3103 2138 3103 
Q 1681 3103 1420 2742 
Q 1159 2381 1159 1747 
Q 1159 1113 1420 752 
Q 1681 391 2138 391 
Q 2594 391 2855 752 
Q 3116 1113 3116 1747 
z
" transform="scale(0.015625)"/>
      <path id="DejaVuSans-74" d="M 1172 4494 
L 1172 3500 
L 2356 3500 
L 2356 3053 
L 1172 3053 
L 1172 1153 
Q 1172 725 1289 603 
Q 1406 481 1766 481 
L 2356 481 
L 2356 0 
L 1766 0 
Q 1100 0 847 248 
Q 594 497 594 1153 
L 594 3053 
L 172 3053 
L 172 3500 
L 594 3500 
L 594 4494 
L 1172 4494 
z
" transform="scale(0.015625)"/>
      <path id="DejaVuSans-6c" d="M 603 4863 
L 1178 4863 
L 1178 0 
L 603 0 
L 603 4863 
z
" transform="scale(0.015625)"/>
      <path id="DejaVuSans-3b" d="M 750 3309 
L 1409 3309 
L 1409 2516 
L 750 2516 
L 750 3309 
z
M 750 794 
L 1409 794 
L 1409 256 
L 897 -744 
L 494 -744 
L 750 256 
L 750 794 
z
" transform="scale(0.015625)"/>
      <path id="DejaVuSans-e1" d="M 2194 1759 
Q 1497 1759 1228 1600 
Q 959 1441 959 1056 
Q 959 750 1161 570 
Q 1363 391 1709 391 
Q 2188 391 2477 730 
Q 2766 1069 2766 1631 
L 2766 1759 
L 2194 1759 
z
M 3341 1997 
L 3341 0 
L 2766 0 
L 2766 531 
Q 2569 213 2275 61 
Q 1981 -91 1556 -91 
Q 1019 -91 701 211 
Q 384 513 384 1019 
Q 384 1609 779 1909 
Q 1175 2209 1959 2209 
L 2766 2209 
L 2766 2266 
Q 2766 2663 2505 2880 
Q 2244 3097 1772 3097 
Q 1472 3097 1187 3025 
Q 903 2953 641 2809 
L 641 3341 
Q 956 3463 1253 3523 
Q 1550 3584 1831 3584 
Q 2591 3584 2966 3190 
Q 3341 2797 3341 1997 
z
M 2291 5119 
L 2913 5119 
L 1894 3944 
L 1416 3944 
L 2291 5119 
z
" transform="scale(0.015625)"/>
      <path id="DejaVuSans-2e" d="M 684 794 
L 1344 794 
L 1344 0 
L 684 0 
L 684 794 
z
" transform="scale(0.015625)"/>
     </defs>
     <use xlink:href="#DejaVuSans-45"/>
     <use xlink:href="#DejaVuSans-73" x="63.183594"/>
     <use xlink:href="#DejaVuSans-71" x="115.283203"/>
     <use xlink:href="#DejaVuSans-75" x="178.759766"/>
     <use xlink:href="#DejaVuSans-65" x="242.138672"/>
     <use xlink:href="#DejaVuSans-6d" x="303.662109"/>
     <use xlink:href="#DejaVuSans-61" x="401.074219"/>
     <use xlink:href="#DejaVuSans-20" x="462.353516"/>
     <use xlink:href="#DejaVuSans-63" x="494.140625"/>
     <use xlink:href="#DejaVuSans-6f" x="549.121094"/>
     <use xlink:href="#DejaVuSans-6e" x="610.302734"/>
     <use xlink:href="#DejaVuSans-63" x="673.681641"/>
     <use xlink:href="#DejaVuSans-65" x="728.662109"/>
     <use xlink:href="#DejaVuSans-70" x="790.185547"/>
     <use xlink:href="#DejaVuSans-74" x="853.662109"/>
     <use xlink:href="#DejaVuSans-75" x="892.871094"/>
     <use xlink:href="#DejaVuSans-61" x="956.25"/>
     <use xlink:href="#DejaVuSans-6c" x="1017.529297"/>
     <use xlink:href="#DejaVuSans-3b" x="1045.3125"/>
     <use xlink:href="#DejaVuSans-20" x="1079.003906"/>
     <use xlink:href="#DejaVuSans-6e" x="1110.791016"/>
     <use xlink:href="#DejaVuSans-6f" x="1174.169922"/>
     <use xlink:href="#DejaVuSans-20" x="1235.351562"/>
     <use xlink:href="#DejaVuSans-65" x="1267.138672"/>
     <use xlink:href="#DejaVuSans-73" x="1328.662109"/>
     <use xlink:href="#DejaVuSans-74" x="1380.761719"/>
     <use xlink:href="#DejaVuSans-e1" x="1419.970703"/>
     <use xlink:href="#DejaVuSans-20" x="1481.25"/>
     <use xlink:href="#DejaVuSans-61" x="1513.037109"/>
     <use xlink:href="#DejaVuSans-20" x="1574.316406"/>
     <use xlink:href="#DejaVuSans-65" x="1606.103516"/>
     <use xlink:href="#DejaVuSans-73" x="1667.626953"/>
     <use xlink:href="#DejaVuSans-63" x="1719.726562"/>
     <use xlink:href="#DejaVuSans-61" x="1774.707031"/>
     <use xlink:href="#DejaVuSans-6c" x="1835.986328"/>
     <use xlink:href="#DejaVuSans-61" x="1863.769531"/>
     <use xlink:href="#DejaVuSans-2e" x="1925.048828"/>
    </g>
   </g>
   <g id="text_3">
    <!-- Señal externa -->
    <g style="fill: #3d3d3d" transform="translate(203.250356 249.557511) scale(0.22 -0.22)">
     <defs>
      <path id="DejaVuSans-53" d="M 3425 4513 
L 3425 3897 
Q 3066 4069 2747 4153 
Q 2428 4238 2131 4238 
Q 1616 4238 1336 4038 
Q 1056 3838 1056 3469 
Q 1056 3159 1242 3001 
Q 1428 2844 1947 2747 
L 2328 2669 
Q 3034 2534 3370 2195 
Q 3706 1856 3706 1288 
Q 3706 609 3251 259 
Q 2797 -91 1919 -91 
Q 1588 -91 1214 -16 
Q 841 59 441 206 
L 441 856 
Q 825 641 1194 531 
Q 1563 422 1919 422 
Q 2459 422 2753 634 
Q 3047 847 3047 1241 
Q 3047 1584 2836 1778 
Q 2625 1972 2144 2069 
L 1759 2144 
Q 1053 2284 737 2584 
Q 422 2884 422 3419 
Q 422 4038 858 4394 
Q 1294 4750 2059 4750 
Q 2388 4750 2728 4690 
Q 3069 4631 3425 4513 
z
" transform="scale(0.015625)"/>
      <path id="DejaVuSans-f1" d="M 3513 2113 
L 3513 0 
L 2938 0 
L 2938 2094 
Q 2938 2591 2744 2837 
Q 2550 3084 2163 3084 
Q 1697 3084 1428 2787 
Q 1159 2491 1159 1978 
L 1159 0 
L 581 0 
L 581 3500 
L 1159 3500 
L 1159 2956 
Q 1366 3272 1645 3428 
Q 1925 3584 2291 3584 
Q 2894 3584 3203 3211 
Q 3513 2838 3513 2113 
z
M 2063 4281 
L 1884 4453 
Q 1816 4516 1764 4545 
Q 1713 4575 1672 4575 
Q 1553 4575 1497 4461 
Q 1441 4347 1434 4091 
L 1044 4091 
Q 1050 4513 1209 4742 
Q 1369 4972 1653 4972 
Q 1772 4972 1872 4928 
Q 1972 4884 2088 4781 
L 2266 4609 
Q 2334 4547 2386 4517 
Q 2438 4488 2478 4488 
Q 2597 4488 2653 4602 
Q 2709 4716 2716 4972 
L 3106 4972 
Q 3100 4550 2940 4320 
Q 2781 4091 2497 4091 
Q 2378 4091 2278 4134 
Q 2178 4178 2063 4281 
z
" transform="scale(0.015625)"/>
      <path id="DejaVuSans-78" d="M 3513 3500 
L 2247 1797 
L 3578 0 
L 2900 0 
L 1881 1375 
L 863 0 
L 184 0 
L 1544 1831 
L 300 3500 
L 978 3500 
L 1906 2253 
L 2834 3500 
L 3513 3500 
z
" transform="scale(0.015625)"/>
      <path id="DejaVuSans-72" d="M 2631 2963 
Q 2534 3019 2420 3045 
Q 2306 3072 2169 3072 
Q 1681 3072 1420 2755 
Q 1159 2438 1159 1844 
L 1159 0 
L 581 0 
L 581 3500 
L 1159 3500 
L 1159 2956 
Q 1341 3275 1631 3429 
Q 1922 3584 2338 3584 
Q 2397 3584 2469 3576 
Q 2541 3569 2628 3553 
L 2631 2963 
z
" transform="scale(0.015625)"/>
     </defs>
     <use xlink:href="#DejaVuSans-53"/>
     <use xlink:href="#DejaVuSans-65" x="63.476562"/>
     <use xlink:href="#DejaVuSans-f1" x="125"/>
     <use xlink:href="#DejaVuSans-61" x="188.378906"/>
     <use xlink:href="#DejaVuSans-6c" x="249.658203"/>
     <use xlink:href="#DejaVuSans-20" x="277.441406"/>
     <use xlink:href="#DejaVuSans-65" x="309.228516"/>
     <use xlink:href="#DejaVuSans-78" x="369.001953"/>
     <use xlink:href="#DejaVuSans-74" x="428.181641"/>
     <use xlink:href="#DejaVuSans-65" x="467.390625"/>
     <use xlink:href="#DejaVuSans-72" x="528.914062"/>
     <use xlink:href="#DejaVuSans-6e" x="568.277344"/>
     <use xlink:href="#DejaVuSans-61" x="631.65625"/>
    </g>
    <!-- frecuencia y nivel -->
    <g style="fill: #3d3d3d" transform="translate(182.090825 274.192699) scale(0.22 -0.22)">
     <defs>
      <path id="DejaVuSans-66" d="M 2375 4863 
L 2375 4384 
L 1825 4384 
Q 1516 4384 1395 4259 
Q 1275 4134 1275 3809 
L 1275 3500 
L 2222 3500 
L 2222 3053 
L 1275 3053 
L 1275 0 
L 697 0 
L 697 3053 
L 147 3053 
L 147 3500 
L 697 3500 
L 697 3744 
Q 697 4328 969 4595 
Q 1241 4863 1831 4863 
L 2375 4863 
z
" transform="scale(0.015625)"/>
      <path id="DejaVuSans-69" d="M 603 3500 
L 1178 3500 
L 1178 0 
L 603 0 
L 603 3500 
z
M 603 4863 
L 1178 4863 
L 1178 4134 
L 603 4134 
L 603 4863 
z
" transform="scale(0.015625)"/>
      <path id="DejaVuSans-79" d="M 2059 -325 
Q 1816 -950 1584 -1140 
Q 1353 -1331 966 -1331 
L 506 -1331 
L 506 -850 
L 844 -850 
Q 1081 -850 1212 -737 
Q 1344 -625 1503 -206 
L 1606 56 
L 191 3500 
L 800 3500 
L 1894 763 
L 2988 3500 
L 3597 3500 
L 2059 -325 
z
" transform="scale(0.015625)"/>
      <path id="DejaVuSans-76" d="M 191 3500 
L 800 3500 
L 1894 563 
L 2988 3500 
L 3597 3500 
L 2284 0 
L 1503 0 
L 191 3500 
z
" transform="scale(0.015625)"/>
     </defs>
     <use xlink:href="#DejaVuSans-66"/>
     <use xlink:href="#DejaVuSans-72" x="35.205078"/>
     <use xlink:href="#DejaVuSans-65" x="74.068359"/>
     <use xlink:href="#DejaVuSans-63" x="135.591797"/>
     <use xlink:href="#DejaVuSans-75" x="190.572266"/>
     <use xlink:href="#DejaVuSans-65" x="253.951172"/>
     <use xlink:href="#DejaVuSans-6e" x="315.474609"/>
     <use xlink:href="#DejaVuSans-63" x="378.853516"/>
     <use xlink:href="#DejaVuSans-69" x="433.833984"/>
     <use xlink:href="#DejaVuSans-61" x="461.617188"/>
     <use xlink:href="#DejaVuSans-20" x="522.896484"/>
     <use xlink:href="#DejaVuSans-79" x="554.683594"/>
     <use xlink:href="#DejaVuSans-20" x="613.863281"/>
     <use xlink:href="#DejaVuSans-6e" x="645.650391"/>
     <use xlink:href="#DejaVuSans-69" x="709.029297"/>
     <use xlink:href="#DejaVuSans-76" x="736.8125"/>
     <use xlink:href="#DejaVuSans-65" x="795.992188"/>
     <use xlink:href="#DejaVuSans-6c" x="857.515625"/>
    </g>
   </g>
   <g id="text_4">
    <!-- Percepto referido -->
    <g style="fill: #3d3d3d" transform="translate(380.109394 249.557511) scale(0.22 -0.22)">
     <defs>
      <path id="DejaVuSans-50" d="M 1259 4147 
L 1259 2394 
L 2053 2394 
Q 2494 2394 2734 2622 
Q 2975 2850 2975 3272 
Q 2975 3691 2734 3919 
Q 2494 4147 2053 4147 
L 1259 4147 
z
M 628 4666 
L 2053 4666 
Q 2838 4666 3239 4311 
Q 3641 3956 3641 3272 
Q 3641 2581 3239 2228 
Q 2838 1875 2053 1875 
L 1259 1875 
L 1259 0 
L 628 0 
L 628 4666 
z
" transform="scale(0.015625)"/>
      <path id="DejaVuSans-64" d="M 2906 2969 
L 2906 4863 
L 3481 4863 
L 3481 0 
L 2906 0 
L 2906 525 
Q 2725 213 2448 61 
Q 2172 -91 1784 -91 
Q 1150 -91 751 415 
Q 353 922 353 1747 
Q 353 2572 751 3078 
Q 1150 3584 1784 3584 
Q 2172 3584 2448 3432 
Q 2725 3281 2906 2969 
z
M 947 1747 
Q 947 1113 1208 752 
Q 1469 391 1925 391 
Q 2381 391 2643 752 
Q 2906 1113 2906 1747 
Q 2906 2381 2643 2742 
Q 2381 3103 1925 3103 
Q 1469 3103 1208 2742 
Q 947 2381 947 1747 
z
" transform="scale(0.015625)"/>
     </defs>
     <use xlink:href="#DejaVuSans-50"/>
     <use xlink:href="#DejaVuSans-65" x="56.677734"/>
     <use xlink:href="#DejaVuSans-72" x="118.201172"/>
     <use xlink:href="#DejaVuSans-63" x="157.064453"/>
     <use xlink:href="#DejaVuSans-65" x="212.044922"/>
     <use xlink:href="#DejaVuSans-70" x="273.568359"/>
     <use xlink:href="#DejaVuSans-74" x="337.044922"/>
     <use xlink:href="#DejaVuSans-6f" x="376.253906"/>
     <use xlink:href="#DejaVuSans-20" x="437.435547"/>
     <use xlink:href="#DejaVuSans-72" x="469.222656"/>
     <use xlink:href="#DejaVuSans-65" x="508.085938"/>
     <use xlink:href="#DejaVuSans-66" x="569.609375"/>
     <use xlink:href="#DejaVuSans-65" x="604.814453"/>
     <use xlink:href="#DejaVuSans-72" x="666.337891"/>
     <use xlink:href="#DejaVuSans-69" x="707.451172"/>
     <use xlink:href="#DejaVuSans-64" x="735.234375"/>
     <use xlink:href="#DejaVuSans-6f" x="798.710938"/>
    </g>
    <!-- experiencia subjetiva -->
    <g style="fill: #3d3d3d" transform="translate(357.074706 274.192699) scale(0.22 -0.22)">
     <defs>
      <path id="DejaVuSans-62" d="M 3116 1747 
Q 3116 2381 2855 2742 
Q 2594 3103 2138 3103 
Q 1681 3103 1420 2742 
Q 1159 2381 1159 1747 
Q 1159 1113 1420 752 
Q 1681 391 2138 391 
Q 2594 391 2855 752 
Q 3116 1113 3116 1747 
z
M 1159 2969 
Q 1341 3281 1617 3432 
Q 1894 3584 2278 3584 
Q 2916 3584 3314 3078 
Q 3713 2572 3713 1747 
Q 3713 922 3314 415 
Q 2916 -91 2278 -91 
Q 1894 -91 1617 61 
Q 1341 213 1159 525 
L 1159 0 
L 581 0 
L 581 4863 
L 1159 4863 
L 1159 2969 
z
" transform="scale(0.015625)"/>
      <path id="DejaVuSans-6a" d="M 603 3500 
L 1178 3500 
L 1178 -63 
Q 1178 -731 923 -1031 
Q 669 -1331 103 -1331 
L -116 -1331 
L -116 -844 
L 38 -844 
Q 366 -844 484 -692 
Q 603 -541 603 -63 
L 603 3500 
z
M 603 4863 
L 1178 4863 
L 1178 4134 
L 603 4134 
L 603 4863 
z
" transform="scale(0.015625)"/>
     </defs>
     <use xlink:href="#DejaVuSans-65"/>
     <use xlink:href="#DejaVuSans-78" x="59.773438"/>
     <use xlink:href="#DejaVuSans-70" x="118.953125"/>
     <use xlink:href="#DejaVuSans-65" x="182.429688"/>
     <use xlink:href="#DejaVuSans-72" x="243.953125"/>
     <use xlink:href="#DejaVuSans-69" x="285.066406"/>
     <use xlink:href="#DejaVuSans-65" x="312.849609"/>
     <use xlink:href="#DejaVuSans-6e" x="374.373047"/>
     <use xlink:href="#DejaVuSans-63" x="437.751953"/>
     <use xlink:href="#DejaVuSans-69" x="492.732422"/>
     <use xlink:href="#DejaVuSans-61" x="520.515625"/>
     <use xlink:href="#DejaVuSans-20" x="581.794922"/>
     <use xlink:href="#DejaVuSans-73" x="613.582031"/>
     <use xlink:href="#DejaVuSans-75" x="665.681641"/>
     <use xlink:href="#DejaVuSans-62" x="729.060547"/>
     <use xlink:href="#DejaVuSans-6a" x="792.537109"/>
     <use xlink:href="#DejaVuSans-65" x="820.320312"/>
     <use xlink:href="#DejaVuSans-74" x="881.84375"/>
     <use xlink:href="#DejaVuSans-69" x="921.052734"/>
     <use xlink:href="#DejaVuSans-76" x="948.835938"/>
     <use xlink:href="#DejaVuSans-61" x="1008.015625"/>
    </g>
   </g>
   <g id="text_5">
    <!-- Correspondencia -->
    <g style="fill: #3d3d3d" transform="translate(577.158588 249.557511) scale(0.22 -0.22)">
     <defs>
      <path id="DejaVuSans-43" d="M 4122 4306 
L 4122 3641 
Q 3803 3938 3442 4084 
Q 3081 4231 2675 4231 
Q 1875 4231 1450 3742 
Q 1025 3253 1025 2328 
Q 1025 1406 1450 917 
Q 1875 428 2675 428 
Q 3081 428 3442 575 
Q 3803 722 4122 1019 
L 4122 359 
Q 3791 134 3420 21 
Q 3050 -91 2638 -91 
Q 1578 -91 968 557 
Q 359 1206 359 2328 
Q 359 3453 968 4101 
Q 1578 4750 2638 4750 
Q 3056 4750 3426 4639 
Q 3797 4528 4122 4306 
z
" transform="scale(0.015625)"/>
     </defs>
     <use xlink:href="#DejaVuSans-43"/>
     <use xlink:href="#DejaVuSans-6f" x="69.824219"/>
     <use xlink:href="#DejaVuSans-72" x="131.005859"/>
     <use xlink:href="#DejaVuSans-72" x="170.369141"/>
     <use xlink:href="#DejaVuSans-65" x="209.232422"/>
     <use xlink:href="#DejaVuSans-73" x="270.755859"/>
     <use xlink:href="#DejaVuSans-70" x="322.855469"/>
     <use xlink:href="#DejaVuSans-6f" x="386.332031"/>
     <use xlink:href="#DejaVuSans-6e" x="447.513672"/>
     <use xlink:href="#DejaVuSans-64" x="510.892578"/>
     <use xlink:href="#DejaVuSans-65" x="574.369141"/>
     <use xlink:href="#DejaVuSans-6e" x="635.892578"/>
     <use xlink:href="#DejaVuSans-63" x="699.271484"/>
     <use xlink:href="#DejaVuSans-69" x="754.251953"/>
     <use xlink:href="#DejaVuSans-61" x="782.035156"/>
    </g>
    <!-- resultado de una tarea -->
    <g style="fill: #3d3d3d" transform="translate(544.598588 274.192699) scale(0.22 -0.22)">
     <use xlink:href="#DejaVuSans-72"/>
     <use xlink:href="#DejaVuSans-65" x="38.863281"/>
     <use xlink:href="#DejaVuSans-73" x="100.386719"/>
     <use xlink:href="#DejaVuSans-75" x="152.486328"/>
     <use xlink:href="#DejaVuSans-6c" x="215.865234"/>
     <use xlink:href="#DejaVuSans-74" x="243.648438"/>
     <use xlink:href="#DejaVuSans-61" x="282.857422"/>
     <use xlink:href="#DejaVuSans-64" x="344.136719"/>
     <use xlink:href="#DejaVuSans-6f" x="407.613281"/>
     <use xlink:href="#DejaVuSans-20" x="468.794922"/>
     <use xlink:href="#DejaVuSans-64" x="500.582031"/>
     <use xlink:href="#DejaVuSans-65" x="564.058594"/>
     <use xlink:href="#DejaVuSans-20" x="625.582031"/>
     <use xlink:href="#DejaVuSans-75" x="657.369141"/>
     <use xlink:href="#DejaVuSans-6e" x="720.748047"/>
     <use xlink:href="#DejaVuSans-61" x="784.126953"/>
     <use xlink:href="#DejaVuSans-20" x="845.40625"/>
     <use xlink:href="#DejaVuSans-74" x="877.193359"/>
     <use xlink:href="#DejaVuSans-61" x="916.402344"/>
     <use xlink:href="#DejaVuSans-72" x="977.681641"/>
     <use xlink:href="#DejaVuSans-65" x="1016.544922"/>
     <use xlink:href="#DejaVuSans-61" x="1078.068359"/>
    </g>
   </g>
  </g>
 </g>
 <defs>
  <clipPath id="p33f2adf988">
   <rect x="115.2" y="62.208" width="714.24" height="399.168"/>
  </clipPath>
 </defs>
</svg>
