<svg xmlns="http://www.w3.org/2000/svg" width="1280" height="720" viewBox="0 0 1280 720">
<defs><marker id="arrow" markerWidth="10" markerHeight="8" refX="9" refY="4" orient="auto"><path d="M0,0 L10,4 L0,8 Z" fill="#3D3D3D"/></marker></defs>
<rect width="1280" height="720" fill="white"/>
<rect x="72" y="27" width="390" height="6" fill="#4D1434"/><rect x="472" y="27" width="390" height="6" fill="#903163"/><rect x="872" y="27" width="336" height="6" fill="#969FA7"/>
<text x="72" y="82" font-family="Calibri,Arial,sans-serif" font-size="40" font-weight="700" fill="#3D3D3D">Del movimiento al potencial receptor</text>
<polyline id="flow_1" points="435.3333333333333,247.5 449.3333333333333,247.5 449.3333333333333,247.5 463.3333333333333,247.5" fill="none" stroke="#3D3D3D" stroke-width="3" marker-end="url(#arrow)"/>
<polyline id="flow_2" points="816.6666666666666,247.5 830.6666666666666,247.5 830.6666666666666,247.5 844.6666666666666,247.5" fill="none" stroke="#3D3D3D" stroke-width="3" marker-end="url(#arrow)"/>
<polyline id="flow_3" points="1021.3333333333333,320 1021.3333333333333,367.5 926,367.5 926,415" fill="none" stroke="#3D3D3D" stroke-width="3" marker-end="url(#arrow)"/>
<polyline id="flow_4" points="1198,487.5 640,487.5 640,487.5 82,487.5" fill="none" stroke="#3D3D3D" stroke-width="3" marker-end="url(#arrow)"/>
<rect id="stage_1" x="82" y="175" width="353.3333333333333" height="145" rx="10" fill="#E7F1F1" stroke="#2F7E83" stroke-width="2"/>
<text x="258.66666666666663" y="222" text-anchor="middle" font-family="Calibri,Arial,sans-serif" font-size="32" font-weight="700" fill="#2F7E83">Movimiento</text>
<text x="258.66666666666663" y="260" text-anchor="middle" font-family="Calibri,Arial,sans-serif" font-size="32" font-weight="700" fill="#2F7E83">relativo</text>
<text x="258.66666666666663" y="301" text-anchor="middle" font-family="Calibri,Arial,sans-serif" font-size="30" fill="#3D3D3D">membranas</text>
<rect id="stage_2" x="463.3333333333333" y="175" width="353.3333333333333" height="145" rx="10" fill="#E7F1F1" stroke="#2F7E83" stroke-width="2"/>
<text x="640" y="222" text-anchor="middle" font-family="Calibri,Arial,sans-serif" font-size="32" font-weight="700" fill="#2F7E83">Deflexión del haz</text>
<text x="640" y="267" text-anchor="middle" font-family="Calibri,Arial,sans-serif" font-size="30" fill="#3D3D3D">dirección</text>
<rect id="stage_3" x="844.6666666666666" y="175" width="353.3333333333333" height="145" rx="10" fill="#F3E8EE" stroke="#4D1434" stroke-width="2"/>
<text x="1021.3333333333333" y="222" text-anchor="middle" font-family="Calibri,Arial,sans-serif" font-size="32" font-weight="700" fill="#4D1434">Canales</text>
<text x="1021.3333333333333" y="267" text-anchor="middle" font-family="Calibri,Arial,sans-serif" font-size="30" fill="#3D3D3D">probabilidad cambia</text>
<rect id="stage_4" x="654" y="415" width="544" height="145" rx="10" fill="#F7F6F2" stroke="#969FA7" stroke-width="2"/>
<text x="926" y="462" text-anchor="middle" font-family="Calibri,Arial,sans-serif" font-size="32" font-weight="700" fill="#3D3D3D">Corriente iónica</text>
<text x="926" y="507" text-anchor="middle" font-family="Calibri,Arial,sans-serif" font-size="30" fill="#3D3D3D">K⁺</text>
<rect id="stage_5" x="82" y="415" width="544" height="145" rx="10" fill="#F8EDE2" stroke="#9F541A" stroke-width="2"/>
<text x="354" y="462" text-anchor="middle" font-family="Calibri,Arial,sans-serif" font-size="32" font-weight="700" fill="#9F541A">Potencial receptor</text>
<text x="354" y="507" text-anchor="middle" font-family="Calibri,Arial,sans-serif" font-size="30" fill="#3D3D3D">graduado</text>
<text x="640" y="628" text-anchor="middle" font-family="Calibri,Arial,sans-serif" font-size="22" fill="#3D3D3D">Figura conceptual; no está a escala.</text>
<text x="72" y="690" font-family="Calibri,Arial,sans-serif" font-size="16" fill="#969FA7">Libro del curso, secciones 6.7–6.9; Fettiplace (2017); elaboración conceptual propia.</text>
</svg>