<?xml version="1.0" encoding="utf-8" standalone="no"?>
<!DOCTYPE svg PUBLIC "-//W3C//DTD SVG 1.1//EN"
  "http://www.w3.org/Graphics/SVG/1.1/DTD/svg11.dtd">
<svg xmlns:xlink="http://www.w3.org/1999/xlink" width="921.6pt" height="518.4pt" viewBox="0 0 921.6 518.4" xmlns="http://www.w3.org/2000/svg" version="1.1">
 <metadata>
  <rdf:RDF xmlns:dc="http://purl.org/dc/elements/1.1/" xmlns:cc="http://creativecommons.org/ns#" xmlns:rdf="http://www.w3.org/1999/02/22-rdf-syntax-ns#">
   <cc:Work>
    <dc:type rdf:resource="http://purl.org/dc/dcmitype/StillImage"/>
    <dc:date>2026-08-11T17:27:07.495733</dc:date>
    <dc:format>image/svg+xml</dc:format>
    <dc:creator>
     <cc:Agent>
      <dc:title>Matplotlib v3.9.2, https://matplotlib.org/</dc:title>
     </cc:Agent>
    </dc:creator>
   </cc:Work>
  </rdf:RDF>
 </metadata>
 <defs>
  <style type="text/css">*{stroke-linejoin: round; stroke-linecap: butt}</style>
 </defs>
 <g id="figure_1">
  <g id="patch_1">
   <path d="M 0 518.4 
L 921.6 518.4 
L 921.6 0 
L 0 0 
z
" style="fill: #ffffff"/>
  </g>
  <g id="axes_1">
   <g id="patch_2">
    <path d="M 101.376 430.272 
L 893.952 430.272 
L 893.952 46.656 
L 101.376 46.656 
z
" style="fill: #ffffff"/>
   </g>
   <g id="PolyCollection_1">
    <path d="M 101.376 46.656 
L 101.376 717.81632 
L 103.35744 715.030959 
L 105.33888 712.249635 
L 107.32032 709.472354 
L 109.30176 706.699123 
L 111.2832 703.92995 
L 113.26464 701.164842 
L 115.24608 698.403806 
L 117.22752 695.64685 
L 119.20896 692.89398 
L 121.1904 690.145206 
L 123.17184 687.400533 
L 125.15328 684.65997 
L 127.13472 681.923523 
L 129.11616 679.191202 
L 131.0976 676.463012 
L 133.07904 673.738962 
L 135.06048 671.01906 
L 137.04192 668.303313 
L 139.02336 665.591729 
L 141.0048 662.884316 
L 142.98624 660.181082 
L 144.96768 657.482035 
L 146.94912 654.787182 
L 148.93056 652.096532 
L 150.912 649.410093 
L 152.89344 646.727872 
L 154.87488 644.049878 
L 156.85632 641.376119 
L 158.83776 638.706604 
L 160.8192 636.04134 
L 162.80064 633.380336 
L 164.78208 630.7236 
L 166.76352 628.071141 
L 168.74496 625.422966 
L 170.7264 622.779085 
L 172.70784 620.139507 
L 174.68928 617.504239 
L 176.67072 614.87329 
L 178.65216 612.246669 
L 180.6336 609.624385 
L 182.61504 607.006446 
L 184.59648 604.392862 
L 186.57792 601.783641 
L 188.55936 599.178792 
L 190.5408 596.578324 
L 192.52224 593.982246 
L 194.50368 591.390567 
L 196.48512 588.803297 
L 198.46656 586.220445 
L 200.448 583.642019 
L 202.42944 581.06803 
L 204.41088 578.498486 
L 206.39232 575.933397 
L 208.37376 573.372772 
L 210.3552 570.816622 
L 212.33664 568.264955 
L 214.31808 565.717781 
L 216.29952 563.17511 
L 218.28096 560.636952 
L 220.2624 558.103316 
L 222.24384 555.574213 
L 224.22528 553.049652 
L 226.20672 550.529643 
L 228.18816 548.014197 
L 230.1696 545.503323 
L 232.15104 542.997032 
L 234.13248 540.495334 
L 236.11392 537.99824 
L 238.09536 535.505759 
L 240.0768 533.017902 
L 242.05824 530.534681 
L 244.03968 528.056104 
L 246.02112 525.582184 
L 248.00256 523.11293 
L 249.984 520.648354 
L 251.96544 518.188466 
L 253.94688 515.733278 
L 255.92832 513.2828 
L 257.90976 510.837043 
L 259.8912 508.396019 
L 261.87264 505.959739 
L 263.85408 503.528214 
L 265.83552 501.101456 
L 267.81696 498.679476 
L 269.7984 496.262286 
L 271.77984 493.849896 
L 273.76128 491.44232 
L 275.74272 489.039569 
L 277.72416 486.641654 
L 279.7056 484.248587 
L 281.68704 481.860381 
L 283.66848 479.477048 
L 285.64992 477.0986 
L 287.63136 474.725049 
L 289.6128 472.356408 
L 291.59424 469.992689 
L 293.57568 467.633904 
L 295.55712 465.280067 
L 297.53856 462.93119 
L 299.52 460.587285 
L 301.50144 458.248367 
L 303.48288 455.914447 
L 305.46432 453.585539 
L 307.44576 451.261656 
L 309.4272 448.942812 
L 311.40864 446.62902 
L 313.39008 444.320293 
L 315.37152 442.016645 
L 317.35296 439.718089 
L 319.3344 437.424641 
L 321.31584 435.136313 
L 323.29728 432.853119 
L 325.27872 430.575074 
L 327.26016 428.302192 
L 329.2416 426.034488 
L 331.22304 423.771975 
L 333.20448 421.514668 
L 335.18592 419.262583 
L 337.16736 417.015734 
L 339.1488 414.774136 
L 341.13024 412.537803 
L 343.11168 410.306752 
L 345.09312 408.080998 
L 347.07456 405.860555 
L 349.056 403.64544 
L 351.03744 401.435669 
L 353.01888 399.231256 
L 355.00032 397.032219 
L 356.98176 394.838572 
L 358.9632 392.650333 
L 360.94464 390.467518 
L 362.92608 388.290144 
L 364.90752 386.118226 
L 366.88896 383.951782 
L 368.8704 381.790829 
L 370.85184 379.635383 
L 372.83328 377.485463 
L 374.81472 375.341086 
L 376.79616 373.202268 
L 378.7776 371.069028 
L 380.75904 368.941384 
L 382.74048 366.819354 
L 384.72192 364.702956 
L 386.70336 362.592208 
L 388.6848 360.487129 
L 390.66624 358.387737 
L 392.64768 356.294052 
L 394.62912 354.206093 
L 396.61056 352.123878 
L 398.592 350.047428 
L 400.57344 347.976762 
L 402.55488 345.911899 
L 404.53632 343.85286 
L 406.51776 341.799665 
L 408.4992 339.752334 
L 410.48064 337.710888 
L 412.46208 335.675348 
L 414.44352 333.645735 
L 416.42496 331.622069 
L 418.4064 329.604373 
L 420.38784 327.592669 
L 422.36928 325.586977 
L 424.35072 323.58732 
L 426.33216 321.59372 
L 428.3136 319.606201 
L 430.29504 317.624784 
L 432.27648 315.649494 
L 434.25792 313.680352 
L 436.23936 311.717383 
L 438.2208 309.760611 
L 440.20224 307.810059 
L 442.18368 305.865753 
L 444.16512 303.927716 
L 446.14656 301.995973 
L 448.128 300.07055 
L 450.10944 298.151473 
L 452.09088 296.238766 
L 454.07232 294.332456 
L 456.05376 292.432569 
L 458.0352 290.539132 
L 460.01664 288.652172 
L 461.99808 286.771716 
L 463.97952 284.897792 
L 465.96096 283.030428 
L 467.9424 281.169651 
L 469.92384 279.315492 
L 471.90528 277.467977 
L 473.88672 275.627138 
L 475.86816 273.793004 
L 477.8496 271.965604 
L 479.83104 270.144969 
L 481.81248 268.331131 
L 483.79392 266.52412 
L 485.77536 264.723968 
L 487.7568 262.930707 
L 489.73824 261.14437 
L 491.71968 259.364989 
L 493.70112 257.592598 
L 495.68256 255.827231 
L 497.664 254.068923 
L 499.64544 252.317707 
L 501.62688 250.57362 
L 503.60832 248.836697 
L 505.58976 247.106974 
L 507.5712 245.384488 
L 509.55264 243.669277 
L 511.53408 241.961378 
L 513.51552 240.26083 
L 515.49696 238.567672 
L 517.4784 236.881944 
L 519.45984 235.203686 
L 521.44128 233.532938 
L 523.42272 231.869742 
L 525.40416 230.214141 
L 527.3856 228.566177 
L 529.36704 226.925894 
L 531.34848 225.293335 
L 533.32992 223.668546 
L 535.31136 222.051573 
L 537.2928 220.442462 
L 539.27424 218.84126 
L 541.25568 217.248015 
L 543.23712 215.662776 
L 545.21856 214.085593 
L 547.2 212.516516 
L 549.18144 210.955598 
L 551.16288 209.402889 
L 553.14432 207.858445 
L 555.12576 206.322319 
L 557.1072 204.794566 
L 559.08864 203.275244 
L 561.07008 201.764409 
L 563.05152 200.262121 
L 565.03296 198.768438 
L 567.0144 197.283424 
L 568.99584 195.807139 
L 570.97728 194.339647 
L 572.95872 192.881013 
L 574.94016 191.431304 
L 576.9216 189.990587 
L 578.90304 188.558932 
L 580.88448 187.136409 
L 582.86592 185.72309 
L 584.84736 184.31905 
L 586.8288 182.924365 
L 588.81024 181.539112 
L 590.79168 180.16337 
L 592.77312 178.797221 
L 594.75456 177.440749 
L 596.736 176.09404 
L 598.71744 174.757181 
L 600.69888 173.430263 
L 602.68032 172.113378 
L 604.66176 170.806624 
L 606.6432 169.510097 
L 608.62464 168.223899 
L 610.60608 166.948136 
L 612.58752 165.682915 
L 614.56896 164.428347 
L 616.5504 163.184549 
L 618.53184 161.951639 
L 620.51328 160.729743 
L 622.49472 159.518987 
L 624.47616 158.319507 
L 626.4576 157.131442 
L 628.43904 155.954936 
L 630.42048 154.790142 
L 632.40192 153.637219 
L 634.38336 152.496331 
L 636.3648 151.367654 
L 638.34624 150.251372 
L 640.32768 149.147676 
L 642.30912 148.056771 
L 644.29056 146.978872 
L 646.272 145.914206 
L 648.25344 144.863015 
L 650.23488 143.825556 
L 652.21632 142.8021 
L 654.19776 141.79294 
L 656.1792 140.798385 
L 658.16064 139.818767 
L 660.14208 138.854441 
L 662.12352 137.905787 
L 664.10496 136.973214 
L 666.0864 136.057159 
L 668.06784 135.158095 
L 670.04928 134.27653 
L 672.03072 133.41301 
L 674.01216 132.568127 
L 675.9936 131.742517 
L 677.97504 130.93687 
L 679.95648 130.151931 
L 681.93792 129.38851 
L 683.91936 128.647481 
L 685.9008 127.929799 
L 687.88224 127.2365 
L 689.86368 126.568716 
L 691.84512 125.927687 
L 693.82656 125.314772 
L 695.808 124.731473 
L 697.78944 124.179459 
L 699.77088 123.660595 
L 701.75232 123.176987 
L 703.73376 122.73105 
L 705.7152 122.325594 
L 707.69664 121.963974 
L 709.67808 121.650327 
L 711.65952 121.390007 
L 713.64096 121.190485 
L 715.6224 121.063629 
L 717.60384 121.034919 
L 719.58528 121.183195 
L 721.56672 121.382397 
L 723.54816 121.604828 
L 725.5296 121.851216 
L 727.51104 122.122265 
L 729.49248 122.41865 
L 731.47392 122.741003 
L 733.45536 123.08991 
L 735.4368 123.465897 
L 737.41824 123.869423 
L 739.39968 124.300871 
L 741.38112 124.760536 
L 743.36256 125.248618 
L 745.344 125.765209 
L 747.32544 126.310289 
L 749.30688 126.88371 
L 751.28832 127.485196 
L 753.26976 128.114328 
L 755.2512 128.770542 
L 757.23264 129.453121 
L 759.21408 130.16119 
L 761.19552 130.893716 
L 763.17696 131.649499 
L 765.1584 132.427181 
L 767.13984 133.225237 
L 769.12128 134.041983 
L 771.10272 134.875581 
L 773.08416 135.724042 
L 775.0656 136.585236 
L 777.04704 137.456899 
L 779.02848 138.336647 
L 781.00992 139.221989 
L 782.99136 140.110339 
L 784.9728 140.999035 
L 786.95424 141.885356 
L 788.93568 142.76654 
L 790.91712 143.639803 
L 792.89856 144.502365 
L 794.88 145.351463 
L 796.86144 146.184383 
L 798.84288 146.998472 
L 800.82432 147.79117 
L 802.80576 148.560025 
L 804.7872 149.302716 
L 806.76864 150.017075 
L 808.75008 150.701105 
L 810.73152 151.352999 
L 812.71296 151.971157 
L 814.6944 152.554197 
L 816.67584 153.100976 
L 818.65728 153.610591 
L 820.63872 154.082395 
L 822.62016 154.515999 
L 824.6016 154.911279 
L 826.58304 155.268373 
L 828.56448 155.587683 
L 830.54592 155.869871 
L 832.52736 156.11585 
L 834.5088 156.326779 
L 836.49024 156.50405 
L 838.47168 156.649275 
L 840.45312 156.76427 
L 842.43456 156.851043 
L 844.416 156.91177 
L 846.39744 156.948778 
L 848.37888 156.964527 
L 850.36032 156.961582 
L 852.34176 156.942599 
L 854.3232 156.910296 
L 856.30464 156.867437 
L 858.28608 156.816803 
L 860.26752 156.761177 
L 862.24896 156.703319 
L 864.2304 156.645948 
L 866.21184 156.591722 
L 868.19328 156.543223 
L 870.17472 156.502937 
L 872.15616 156.473241 
L 874.1376 156.456393 
L 876.11904 156.454515 
L 878.10048 156.469589 
L 880.08192 156.503446 
L 882.06336 156.557761 
L 884.0448 156.634048 
L 886.02624 156.73366 
L 888.00768 156.857787 
L 889.98912 157.007454 
L 891.97056 157.183527 
L 893.952 157.386716 
L 893.952 46.656 
L 893.952 46.656 
L 891.97056 46.656 
L 889.98912 46.656 
L 888.00768 46.656 
L 886.02624 46.656 
L 884.0448 46.656 
L 882.06336 46.656 
L 880.08192 46.656 
L 878.10048 46.656 
L 876.11904 46.656 
L 874.1376 46.656 
L 872.15616 46.656 
L 870.17472 46.656 
L 868.19328 46.656 
L 866.21184 46.656 
L 864.2304 46.656 
L 862.24896 46.656 
L 860.26752 46.656 
L 858.28608 46.656 
L 856.30464 46.656 
L 854.3232 46.656 
L 852.34176 46.656 
L 850.36032 46.656 
L 848.37888 46.656 
L 846.39744 46.656 
L 844.416 46.656 
L 842.43456 46.656 
L 840.45312 46.656 
L 838.47168 46.656 
L 836.49024 46.656 
L 834.5088 46.656 
L 832.52736 46.656 
L 830.54592 46.656 
L 828.56448 46.656 
L 826.58304 46.656 
L 824.6016 46.656 
L 822.62016 46.656 
L 820.63872 46.656 
L 818.65728 46.656 
L 816.67584 46.656 
L 814.6944 46.656 
L 812.71296 46.656 
L 810.73152 46.656 
L 808.75008 46.656 
L 806.76864 46.656 
L 804.7872 46.656 
L 802.80576 46.656 
L 800.82432 46.656 
L 798.84288 46.656 
L 796.86144 46.656 
L 794.88 46.656 
L 792.89856 46.656 
L 790.91712 46.656 
L 788.93568 46.656 
L 786.95424 46.656 
L 784.9728 46.656 
L 782.99136 46.656 
L 781.00992 46.656 
L 779.02848 46.656 
L 777.04704 46.656 
L 775.0656 46.656 
L 773.08416 46.656 
L 771.10272 46.656 
L 769.12128 46.656 
L 767.13984 46.656 
L 765.1584 46.656 
L 763.17696 46.656 
L 761.19552 46.656 
L 759.21408 46.656 
L 757.23264 46.656 
L 755.2512 46.656 
L 753.26976 46.656 
L 751.28832 46.656 
L 749.30688 46.656 
L 747.32544 46.656 
L 745.344 46.656 
L 743.36256 46.656 
L 741.38112 46.656 
L 739.39968 46.656 
L 737.41824 46.656 
L 735.4368 46.656 
L 733.45536 46.656 
L 731.47392 46.656 
L 729.49248 46.656 
L 727.51104 46.656 
L 725.5296 46.656 
L 723.54816 46.656 
L 721.56672 46.656 
L 719.58528 46.656 
L 717.60384 46.656 
L 715.6224 46.656 
L 713.64096 46.656 
L 711.65952 46.656 
L 709.67808 46.656 
L 707.69664 46.656 
L 705.7152 46.656 
L 703.73376 46.656 
L 701.75232 46.656 
L 699.77088 46.656 
L 697.78944 46.656 
L 695.808 46.656 
L 693.82656 46.656 
L 691.84512 46.656 
L 689.86368 46.656 
L 687.88224 46.656 
L 685.9008 46.656 
L 683.91936 46.656 
L 681.93792 46.656 
L 679.95648 46.656 
L 677.97504 46.656 
L 675.9936 46.656 
L 674.01216 46.656 
L 672.03072 46.656 
L 670.04928 46.656 
L 668.06784 46.656 
L 666.0864 46.656 
L 664.10496 46.656 
L 662.12352 46.656 
L 660.14208 46.656 
L 658.16064 46.656 
L 656.1792 46.656 
L 654.19776 46.656 
L 652.21632 46.656 
L 650.23488 46.656 
L 648.25344 46.656 
L 646.272 46.656 
L 644.29056 46.656 
L 642.30912 46.656 
L 640.32768 46.656 
L 638.34624 46.656 
L 636.3648 46.656 
L 634.38336 46.656 
L 632.40192 46.656 
L 630.42048 46.656 
L 628.43904 46.656 
L 626.4576 46.656 
L 624.47616 46.656 
L 622.49472 46.656 
L 620.51328 46.656 
L 618.53184 46.656 
L 616.5504 46.656 
L 614.56896 46.656 
L 612.58752 46.656 
L 610.60608 46.656 
L 608.62464 46.656 
L 606.6432 46.656 
L 604.66176 46.656 
L 602.68032 46.656 
L 600.69888 46.656 
L 598.71744 46.656 
L 596.736 46.656 
L 594.75456 46.656 
L 592.77312 46.656 
L 590.79168 46.656 
L 588.81024 46.656 
L 586.8288 46.656 
L 584.84736 46.656 
L 582.86592 46.656 
L 580.88448 46.656 
L 578.90304 46.656 
L 576.9216 46.656 
L 574.94016 46.656 
L 572.95872 46.656 
L 570.97728 46.656 
L 568.99584 46.656 
L 567.0144 46.656 
L 565.03296 46.656 
L 563.05152 46.656 
L 561.07008 46.656 
L 559.08864 46.656 
L 557.1072 46.656 
L 555.12576 46.656 
L 553.14432 46.656 
L 551.16288 46.656 
L 549.18144 46.656 
L 547.2 46.656 
L 545.21856 46.656 
L 543.23712 46.656 
L 541.25568 46.656 
L 539.27424 46.656 
L 537.2928 46.656 
L 535.31136 46.656 
L 533.32992 46.656 
L 531.34848 46.656 
L 529.36704 46.656 
L 527.3856 46.656 
L 525.40416 46.656 
L 523.42272 46.656 
L 521.44128 46.656 
L 519.45984 46.656 
L 517.4784 46.656 
L 515.49696 46.656 
L 513.51552 46.656 
L 511.53408 46.656 
L 509.55264 46.656 
L 507.5712 46.656 
L 505.58976 46.656 
L 503.60832 46.656 
L 501.62688 46.656 
L 499.64544 46.656 
L 497.664 46.656 
L 495.68256 46.656 
L 493.70112 46.656 
L 491.71968 46.656 
L 489.73824 46.656 
L 487.7568 46.656 
L 485.77536 46.656 
L 483.79392 46.656 
L 481.81248 46.656 
L 479.83104 46.656 
L 477.8496 46.656 
L 475.86816 46.656 
L 473.88672 46.656 
L 471.90528 46.656 
L 469.92384 46.656 
L 467.9424 46.656 
L 465.96096 46.656 
L 463.97952 46.656 
L 461.99808 46.656 
L 460.01664 46.656 
L 458.0352 46.656 
L 456.05376 46.656 
L 454.07232 46.656 
L 452.09088 46.656 
L 450.10944 46.656 
L 448.128 46.656 
L 446.14656 46.656 
L 444.16512 46.656 
L 442.18368 46.656 
L 440.20224 46.656 
L 438.2208 46.656 
L 436.23936 46.656 
L 434.25792 46.656 
L 432.27648 46.656 
L 430.29504 46.656 
L 428.3136 46.656 
L 426.33216 46.656 
L 424.35072 46.656 
L 422.36928 46.656 
L 420.38784 46.656 
L 418.4064 46.656 
L 416.42496 46.656 
L 414.44352 46.656 
L 412.46208 46.656 
L 410.48064 46.656 
L 408.4992 46.656 
L 406.51776 46.656 
L 404.53632 46.656 
L 402.55488 46.656 
L 400.57344 46.656 
L 398.592 46.656 
L 396.61056 46.656 
L 394.62912 46.656 
L 392.64768 46.656 
L 390.66624 46.656 
L 388.6848 46.656 
L 386.70336 46.656 
L 384.72192 46.656 
L 382.74048 46.656 
L 380.75904 46.656 
L 378.7776 46.656 
L 376.79616 46.656 
L 374.81472 46.656 
L 372.83328 46.656 
L 370.85184 46.656 
L 368.8704 46.656 
L 366.88896 46.656 
L 364.90752 46.656 
L 362.92608 46.656 
L 360.94464 46.656 
L 358.9632 46.656 
L 356.98176 46.656 
L 355.00032 46.656 
L 353.01888 46.656 
L 351.03744 46.656 
L 349.056 46.656 
L 347.07456 46.656 
L 345.09312 46.656 
L 343.11168 46.656 
L 341.13024 46.656 
L 339.1488 46.656 
L 337.16736 46.656 
L 335.18592 46.656 
L 333.20448 46.656 
L 331.22304 46.656 
L 329.2416 46.656 
L 327.26016 46.656 
L 325.27872 46.656 
L 323.29728 46.656 
L 321.31584 46.656 
L 319.3344 46.656 
L 317.35296 46.656 
L 315.37152 46.656 
L 313.39008 46.656 
L 311.40864 46.656 
L 309.4272 46.656 
L 307.44576 46.656 
L 305.46432 46.656 
L 303.48288 46.656 
L 301.50144 46.656 
L 299.52 46.656 
L 297.53856 46.656 
L 295.55712 46.656 
L 293.57568 46.656 
L 291.59424 46.656 
L 289.6128 46.656 
L 287.63136 46.656 
L 285.64992 46.656 
L 283.66848 46.656 
L 281.68704 46.656 
L 279.7056 46.656 
L 277.72416 46.656 
L 275.74272 46.656 
L 273.76128 46.656 
L 271.77984 46.656 
L 269.7984 46.656 
L 267.81696 46.656 
L 265.83552 46.656 
L 263.85408 46.656 
L 261.87264 46.656 
L 259.8912 46.656 
L 257.90976 46.656 
L 255.92832 46.656 
L 253.94688 46.656 
L 251.96544 46.656 
L 249.984 46.656 
L 248.00256 46.656 
L 246.02112 46.656 
L 244.03968 46.656 
L 242.05824 46.656 
L 240.0768 46.656 
L 238.09536 46.656 
L 236.11392 46.656 
L 234.13248 46.656 
L 232.15104 46.656 
L 230.1696 46.656 
L 228.18816 46.656 
L 226.20672 46.656 
L 224.22528 46.656 
L 222.24384 46.656 
L 220.2624 46.656 
L 218.28096 46.656 
L 216.29952 46.656 
L 214.31808 46.656 
L 212.33664 46.656 
L 210.3552 46.656 
L 208.37376 46.656 
L 206.39232 46.656 
L 204.41088 46.656 
L 202.42944 46.656 
L 200.448 46.656 
L 198.46656 46.656 
L 196.48512 46.656 
L 194.50368 46.656 
L 192.52224 46.656 
L 190.5408 46.656 
L 188.55936 46.656 
L 186.57792 46.656 
L 184.59648 46.656 
L 182.61504 46.656 
L 180.6336 46.656 
L 178.65216 46.656 
L 176.67072 46.656 
L 174.68928 46.656 
L 172.70784 46.656 
L 170.7264 46.656 
L 168.74496 46.656 
L 166.76352 46.656 
L 164.78208 46.656 
L 162.80064 46.656 
L 160.8192 46.656 
L 158.83776 46.656 
L 156.85632 46.656 
L 154.87488 46.656 
L 152.89344 46.656 
L 150.912 46.656 
L 148.93056 46.656 
L 146.94912 46.656 
L 144.96768 46.656 
L 142.98624 46.656 
L 141.0048 46.656 
L 139.02336 46.656 
L 137.04192 46.656 
L 135.06048 46.656 
L 133.07904 46.656 
L 131.0976 46.656 
L 129.11616 46.656 
L 127.13472 46.656 
L 125.15328 46.656 
L 123.17184 46.656 
L 121.1904 46.656 
L 119.20896 46.656 
L 117.22752 46.656 
L 115.24608 46.656 
L 113.26464 46.656 
L 111.2832 46.656 
L 109.30176 46.656 
L 107.32032 46.656 
L 105.33888 46.656 
L 103.35744 46.656 
L 101.376 46.656 
z
" clip-path="url(#p7789b7d3a9)" style="fill: url(#hf4aa1575bd); fill-opacity: 0.13; stroke: #2f7e83; stroke-opacity: 0.13"/>
   </g>
   <g id="matplotlib.axis_1">
    <g id="xtick_1">
     <g id="line2d_1">
      <path d="M 101.376 430.272 
L 101.376 46.656 
" clip-path="url(#p7789b7d3a9)" style="fill: none; stroke: #d9dce0; stroke-opacity: 0.8; stroke-linecap: square"/>
     </g>
     <g id="line2d_2">
      <defs>
       <path id="m094aa7107e" d="M 0 0 
L 0 3.5 
" style="stroke: #3d3d3d; stroke-width: 0.8"/>
      </defs>
      <g>
       <use xlink:href="#m094aa7107e" x="101.376" y="430.272" style="fill: #3d3d3d; stroke: #3d3d3d; stroke-width: 0.8"/>
      </g>
     </g>
     <g id="text_1">
      <text style="fill: #3d3d3d; font: 18px 'Calibri', 'Arial', 'DejaVu Sans', sans-serif; text-anchor: middle" x="101.376" y="449.514812" transform="rotate(-0 101.376 449.514812)">20</text>
     </g>
    </g>
    <g id="xtick_2">
     <g id="line2d_3">
      <path d="M 299.52 430.272 
L 299.52 46.656 
" clip-path="url(#p7789b7d3a9)" style="fill: none; stroke: #d9dce0; stroke-opacity: 0.8; stroke-linecap: square"/>
     </g>
     <g id="line2d_4">
      <g>
       <use xlink:href="#m094aa7107e" x="299.52" y="430.272" style="fill: #3d3d3d; stroke: #3d3d3d; stroke-width: 0.8"/>
      </g>
     </g>
     <g id="text_2">
      <text style="fill: #3d3d3d; font: 18px 'Calibri', 'Arial', 'DejaVu Sans', sans-serif; text-anchor: middle" x="299.52" y="449.514812" transform="rotate(-0 299.52 449.514812)">100</text>
     </g>
    </g>
    <g id="xtick_3">
     <g id="line2d_5">
      <path d="M 582.999976 430.272 
L 582.999976 46.656 
" clip-path="url(#p7789b7d3a9)" style="fill: none; stroke: #d9dce0; stroke-opacity: 0.8; stroke-linecap: square"/>
     </g>
     <g id="line2d_6">
      <g>
       <use xlink:href="#m094aa7107e" x="582.999976" y="430.272" style="fill: #3d3d3d; stroke: #3d3d3d; stroke-width: 0.8"/>
      </g>
     </g>
     <g id="text_3">
      <text style="fill: #3d3d3d; font: 18px 'Calibri', 'Arial', 'DejaVu Sans', sans-serif; text-anchor: middle" x="582.999976" y="449.514812" transform="rotate(-0 582.999976 449.514812)">1 k</text>
     </g>
    </g>
    <g id="xtick_4">
     <g id="line2d_7">
      <path d="M 718.254298 430.272 
L 718.254298 46.656 
" clip-path="url(#p7789b7d3a9)" style="fill: none; stroke: #d9dce0; stroke-opacity: 0.8; stroke-linecap: square"/>
     </g>
     <g id="line2d_8">
      <g>
       <use xlink:href="#m094aa7107e" x="718.254298" y="430.272" style="fill: #3d3d3d; stroke: #3d3d3d; stroke-width: 0.8"/>
      </g>
     </g>
     <g id="text_4">
      <text style="fill: #3d3d3d; font: 18px 'Calibri', 'Arial', 'DejaVu Sans', sans-serif; text-anchor: middle" x="718.254298" y="449.514812" transform="rotate(-0 718.254298 449.514812)">3 k</text>
     </g>
    </g>
    <g id="xtick_5">
     <g id="line2d_9">
      <path d="M 866.479952 430.272 
L 866.479952 46.656 
" clip-path="url(#p7789b7d3a9)" style="fill: none; stroke: #d9dce0; stroke-opacity: 0.8; stroke-linecap: square"/>
     </g>
     <g id="line2d_10">
      <g>
       <use xlink:href="#m094aa7107e" x="866.479952" y="430.272" style="fill: #3d3d3d; stroke: #3d3d3d; stroke-width: 0.8"/>
      </g>
     </g>
     <g id="text_5">
      <text style="fill: #3d3d3d; font: 18px 'Calibri', 'Arial', 'DejaVu Sans', sans-serif; text-anchor: middle" x="866.479952" y="449.514812" transform="rotate(-0 866.479952 449.514812)">10 k</text>
     </g>
    </g>
    <g id="xtick_6">
     <g id="line2d_11">
      <defs>
       <path id="m54475ec3fc" d="M 0 0 
L 0 2 
" style="stroke: #3d3d3d; stroke-width: 0.6"/>
      </defs>
      <g>
       <use xlink:href="#m54475ec3fc" x="151.294346" y="430.272" style="fill: #3d3d3d; stroke: #3d3d3d; stroke-width: 0.6"/>
      </g>
     </g>
    </g>
    <g id="xtick_7">
     <g id="line2d_12">
      <g>
       <use xlink:href="#m54475ec3fc" x="186.711976" y="430.272" style="fill: #3d3d3d; stroke: #3d3d3d; stroke-width: 0.6"/>
      </g>
     </g>
    </g>
    <g id="xtick_8">
     <g id="line2d_13">
      <g>
       <use xlink:href="#m54475ec3fc" x="214.184024" y="430.272" style="fill: #3d3d3d; stroke: #3d3d3d; stroke-width: 0.6"/>
      </g>
     </g>
    </g>
    <g id="xtick_9">
     <g id="line2d_14">
      <g>
       <use xlink:href="#m54475ec3fc" x="236.630322" y="430.272" style="fill: #3d3d3d; stroke: #3d3d3d; stroke-width: 0.6"/>
      </g>
     </g>
    </g>
    <g id="xtick_10">
     <g id="line2d_15">
      <g>
       <use xlink:href="#m54475ec3fc" x="255.608396" y="430.272" style="fill: #3d3d3d; stroke: #3d3d3d; stroke-width: 0.6"/>
      </g>
     </g>
    </g>
    <g id="xtick_11">
     <g id="line2d_16">
      <g>
       <use xlink:href="#m54475ec3fc" x="272.047952" y="430.272" style="fill: #3d3d3d; stroke: #3d3d3d; stroke-width: 0.6"/>
      </g>
     </g>
    </g>
    <g id="xtick_12">
     <g id="line2d_17">
      <g>
       <use xlink:href="#m54475ec3fc" x="286.548668" y="430.272" style="fill: #3d3d3d; stroke: #3d3d3d; stroke-width: 0.6"/>
      </g>
     </g>
    </g>
    <g id="xtick_13">
     <g id="line2d_18">
      <g>
       <use xlink:href="#m54475ec3fc" x="384.855976" y="430.272" style="fill: #3d3d3d; stroke: #3d3d3d; stroke-width: 0.6"/>
      </g>
     </g>
    </g>
    <g id="xtick_14">
     <g id="line2d_19">
      <g>
       <use xlink:href="#m54475ec3fc" x="434.774322" y="430.272" style="fill: #3d3d3d; stroke: #3d3d3d; stroke-width: 0.6"/>
      </g>
     </g>
    </g>
    <g id="xtick_15">
     <g id="line2d_20">
      <g>
       <use xlink:href="#m54475ec3fc" x="470.191952" y="430.272" style="fill: #3d3d3d; stroke: #3d3d3d; stroke-width: 0.6"/>
      </g>
     </g>
    </g>
    <g id="xtick_16">
     <g id="line2d_21">
      <g>
       <use xlink:href="#m54475ec3fc" x="497.664" y="430.272" style="fill: #3d3d3d; stroke: #3d3d3d; stroke-width: 0.6"/>
      </g>
     </g>
    </g>
    <g id="xtick_17">
     <g id="line2d_22">
      <g>
       <use xlink:href="#m54475ec3fc" x="520.110298" y="430.272" style="fill: #3d3d3d; stroke: #3d3d3d; stroke-width: 0.6"/>
      </g>
     </g>
    </g>
    <g id="xtick_18">
     <g id="line2d_23">
      <g>
       <use xlink:href="#m54475ec3fc" x="539.088372" y="430.272" style="fill: #3d3d3d; stroke: #3d3d3d; stroke-width: 0.6"/>
      </g>
     </g>
    </g>
    <g id="xtick_19">
     <g id="line2d_24">
      <g>
       <use xlink:href="#m54475ec3fc" x="555.527928" y="430.272" style="fill: #3d3d3d; stroke: #3d3d3d; stroke-width: 0.6"/>
      </g>
     </g>
    </g>
    <g id="xtick_20">
     <g id="line2d_25">
      <g>
       <use xlink:href="#m54475ec3fc" x="570.028644" y="430.272" style="fill: #3d3d3d; stroke: #3d3d3d; stroke-width: 0.6"/>
      </g>
     </g>
    </g>
    <g id="xtick_21">
     <g id="line2d_26">
      <g>
       <use xlink:href="#m54475ec3fc" x="668.335952" y="430.272" style="fill: #3d3d3d; stroke: #3d3d3d; stroke-width: 0.6"/>
      </g>
     </g>
    </g>
    <g id="xtick_22">
     <g id="line2d_27">
      <g>
       <use xlink:href="#m54475ec3fc" x="753.671928" y="430.272" style="fill: #3d3d3d; stroke: #3d3d3d; stroke-width: 0.6"/>
      </g>
     </g>
    </g>
    <g id="xtick_23">
     <g id="line2d_28">
      <g>
       <use xlink:href="#m54475ec3fc" x="781.143976" y="430.272" style="fill: #3d3d3d; stroke: #3d3d3d; stroke-width: 0.6"/>
      </g>
     </g>
    </g>
    <g id="xtick_24">
     <g id="line2d_29">
      <g>
       <use xlink:href="#m54475ec3fc" x="803.590274" y="430.272" style="fill: #3d3d3d; stroke: #3d3d3d; stroke-width: 0.6"/>
      </g>
     </g>
    </g>
    <g id="xtick_25">
     <g id="line2d_30">
      <g>
       <use xlink:href="#m54475ec3fc" x="822.568348" y="430.272" style="fill: #3d3d3d; stroke: #3d3d3d; stroke-width: 0.6"/>
      </g>
     </g>
    </g>
    <g id="xtick_26">
     <g id="line2d_31">
      <g>
       <use xlink:href="#m54475ec3fc" x="839.007904" y="430.272" style="fill: #3d3d3d; stroke: #3d3d3d; stroke-width: 0.6"/>
      </g>
     </g>
    </g>
    <g id="xtick_27">
     <g id="line2d_32">
      <g>
       <use xlink:href="#m54475ec3fc" x="853.50862" y="430.272" style="fill: #3d3d3d; stroke: #3d3d3d; stroke-width: 0.6"/>
      </g>
     </g>
    </g>
    <g id="text_6">
     <text style="fill: #3d3d3d; font: 22px 'Calibri', 'Arial', 'DejaVu Sans', sans-serif; text-anchor: middle" x="497.664" y="471.957312" transform="rotate(-0 497.664 471.957312)">Frecuencia  (Hz; escala logarítmica)</text>
    </g>
   </g>
   <g id="matplotlib.axis_2">
    <g id="text_7">
     <text style="fill: #3d3d3d; font: 22px 'Calibri', 'Arial', 'DejaVu Sans', sans-serif; text-anchor: middle" x="93.464125" y="238.464" transform="rotate(-90 93.464125 238.464)">Nivel de umbral  (escala cualitativa)</text>
    </g>
   </g>
   <g id="line2d_33">
    <path d="M 250.989549 519.4 
L 267.81696 498.679476 
L 285.64992 477.0986 
L 301.50144 458.248367 
L 317.35296 439.718089 
L 333.20448 421.514668 
L 349.056 403.64544 
L 364.90752 386.118226 
L 380.75904 368.941384 
L 396.61056 352.123878 
L 410.48064 337.710888 
L 424.35072 323.58732 
L 438.2208 309.760611 
L 452.09088 296.238766 
L 465.96096 283.030428 
L 479.83104 270.144969 
L 493.70112 257.592598 
L 505.58976 247.106974 
L 517.4784 236.881944 
L 529.36704 226.925894 
L 541.25568 217.248015 
L 553.14432 207.858445 
L 565.03296 198.768438 
L 576.9216 189.990587 
L 586.8288 182.924365 
L 596.736 176.09404 
L 606.6432 169.510097 
L 616.5504 163.184549 
L 626.4576 157.131442 
L 636.3648 151.367654 
L 644.29056 146.978872 
L 652.21632 142.8021 
L 660.14208 138.854441 
L 668.06784 135.158095 
L 675.9936 131.742517 
L 681.93792 129.38851 
L 687.88224 127.2365 
L 693.82656 125.314772 
L 699.77088 123.660595 
L 703.73376 122.73105 
L 707.69664 121.963974 
L 711.65952 121.390007 
L 715.6224 121.063629 
L 717.60384 121.034919 
L 721.56672 121.382397 
L 727.51104 122.122265 
L 733.45536 123.08991 
L 739.39968 124.300871 
L 745.344 125.765209 
L 751.28832 127.485196 
L 757.23264 129.453121 
L 763.17696 131.649499 
L 771.10272 134.875581 
L 781.00992 139.221989 
L 794.88 145.351463 
L 800.82432 147.79117 
L 806.76864 150.017075 
L 812.71296 151.971157 
L 818.65728 153.610591 
L 822.62016 154.515999 
L 826.58304 155.268373 
L 832.52736 156.11585 
L 838.47168 156.649275 
L 844.416 156.91177 
L 850.36032 156.961582 
L 860.26752 156.761177 
L 874.1376 156.456393 
L 882.06336 156.557761 
L 888.00768 156.857787 
L 893.952 157.386716 
L 893.952 157.386716 
" clip-path="url(#p7789b7d3a9)" style="fill: none; stroke: #4d1434; stroke-width: 5; stroke-linecap: square"/>
   </g>
   <g id="patch_3">
    <path d="M 101.376 430.272 
L 101.376 46.656 
" style="fill: none; stroke: #3d3d3d; stroke-width: 0.8; stroke-linejoin: miter; stroke-linecap: square"/>
   </g>
   <g id="patch_4">
    <path d="M 101.376 430.272 
L 893.952 430.272 
" style="fill: none; stroke: #3d3d3d; stroke-width: 0.8; stroke-linejoin: miter; stroke-linecap: square"/>
   </g>
   <g id="text_8">
    <text style="fill: #2f7e83; font: 700 24px 'Calibri', 'Arial', 'DejaVu Sans', sans-serif" transform="translate(458.242159 196.326466)">región audible</text>
    <text style="fill: #2f7e83; font: 700 24px 'Calibri', 'Arial', 'DejaVu Sans', sans-serif" transform="translate(397.915909 220.292716)">bajo condiciones definidas</text>
   </g>
   <g id="text_9">
    <text style="fill: #9f541a; font: 20px 'Calibri', 'Arial', 'DejaVu Sans', sans-serif" transform="translate(745.380324 92.56363)">niveles elevados:</text>
    <text style="fill: #9f541a; font: 20px 'Calibri', 'Arial', 'DejaVu Sans', sans-serif" transform="translate(659.739699 112.54863)">no explorar didácticamente</text>
   </g>
  </g>
  <g id="text_10">
   <text style="fill: #969fa7; font: 17px 'Calibri', 'Arial', 'DejaVu Sans', sans-serif; text-anchor: end" x="912.384" y="506.045987" transform="rotate(-0 912.384 506.045987)">Modelo didáctico; no representa datos normativos/experimentales.</text>
  </g>
 </g>
 <defs>
  <clipPath id="p7789b7d3a9">
   <rect x="101.376" y="46.656" width="792.576" height="383.616"/>
  </clipPath>
 </defs>
 <defs>
  <pattern id="hf4aa1575bd" patternUnits="userSpaceOnUse" x="0" y="0" width="72" height="72">
   <rect x="0" y="0" width="73" height="73" fill="#2f7e83"/>
   <path d="M -36 36 
L 36 -36 
M -30 42 
L 42 -30 
M -24 48 
L 48 -24 
M -18 54 
L 54 -18 
M -12 60 
L 60 -12 
M -6 66 
L 66 -6 
M 0 72 
L 72 0 
M 6 78 
L 78 6 
M 12 84 
L 84 12 
M 18 90 
L 90 18 
M 24 96 
L 96 24 
M 30 102 
L 102 30 
M 36 108 
L 108 36 
" style="fill: #2f7e83; stroke: #2f7e83; stroke-width: 1.0; stroke-linecap: butt; stroke-linejoin: miter; stroke-opacity: 0.13"/>
  </pattern>
 </defs>
</svg>
