<svg xmlns="http://www.w3.org/2000/svg" width="1280" height="720" viewBox="0 0 1280 720">
<defs><marker id="arrow" markerWidth="10" markerHeight="8" refX="9" refY="4" orient="auto"><path d="M0,0 L10,4 L0,8 Z" fill="#3D3D3D"/></marker></defs>
<rect width="1280" height="720" fill="white"/>
<rect x="72" y="27" width="390" height="6" fill="#4D1434"/><rect x="472" y="27" width="390" height="6" fill="#903163"/><rect x="872" y="27" width="336" height="6" fill="#969FA7"/>
<text x="72" y="80" font-family="Calibri,Arial,sans-serif" font-size="40" font-weight="700" fill="#3D3D3D">Cuatro elementos del enmascaramiento</text>
<polyline points="365,352.5 527.5,352.5 527.5,239 690,239" fill="none" stroke="#3D3D3D" stroke-width="3" marker-end="url(#arrow)"/>
<polyline points="365,352.5 527.5,352.5 527.5,370 690,370" fill="none" stroke="#3D3D3D" stroke-width="3" marker-end="url(#arrow)"/>
<polyline points="365,352.5 527.5,352.5 527.5,501 690,501" fill="none" stroke="#3D3D3D" stroke-width="3" marker-end="url(#arrow)"/>
<rect id="branch_source" x="80" y="280" width="285" height="145" rx="6" fill="#E7F1F1" stroke="#2F7E83" stroke-width="2"/>
<text x="222.5" y="363.7" text-anchor="middle" font-family="Calibri,Arial,sans-serif" font-size="32" font-weight="700" fill="#2F7E83">Señal</text>
<rect id="branch_1" x="690" y="186.5" width="430" height="105" rx="6" fill="#F3E8EE" stroke="#4D1434" stroke-width="2"/>
<text x="905" y="249.5" text-anchor="middle" font-family="Calibri,Arial,sans-serif" font-size="30" font-weight="700" fill="#4D1434">Enmascarador</text>
<rect id="branch_2" x="690" y="317.5" width="430" height="105" rx="6" fill="#F7F6F2" stroke="#969FA7" stroke-width="2"/>
<text x="905" y="380.5" text-anchor="middle" font-family="Calibri,Arial,sans-serif" font-size="30" font-weight="700" fill="#3D3D3D">Receptor / oído</text>
<rect id="branch_3" x="690" y="448.5" width="430" height="105" rx="6" fill="#F8EDE2" stroke="#9F541A" stroke-width="2"/>
<text x="905" y="511.5" text-anchor="middle" font-family="Calibri,Arial,sans-serif" font-size="30" font-weight="700" fill="#9F541A">Criterio de respuesta</text>
<text x="640" y="670" text-anchor="middle" font-family="Calibri,Arial,sans-serif" font-size="20" fill="#969FA7">Relación de lectura: Relaciones numeradas</text>
<text x="72" y="700" font-family="Calibri,Arial,sans-serif" font-size="14" fill="#969FA7">Libro del curso, capítulo 10; brief, storyboard y diagram_plan de la Unidad 10. Síntesis visual propia de la cátedra</text>
</svg>