<?xml version="1.0" encoding="utf-8" standalone="no"?>
<!DOCTYPE svg PUBLIC "-//W3C//DTD SVG 1.1//EN"
  "http://www.w3.org/Graphics/SVG/1.1/DTD/svg11.dtd">
<svg xmlns:xlink="http://www.w3.org/1999/xlink" width="864pt" height="396pt" viewBox="0 0 864 396" xmlns="http://www.w3.org/2000/svg" version="1.1">
 <metadata>
  <rdf:RDF xmlns:dc="http://purl.org/dc/elements/1.1/" xmlns:cc="http://creativecommons.org/ns#" xmlns:rdf="http://www.w3.org/1999/02/22-rdf-syntax-ns#">
   <cc:Work>
    <dc:type rdf:resource="http://purl.org/dc/dcmitype/StillImage"/>
    <dc:date>2026-07-30T22:44:07.821020</dc:date>
    <dc:format>image/svg+xml</dc:format>
    <dc:creator>
     <cc:Agent>
      <dc:title>Matplotlib v3.9.2, https://matplotlib.org/</dc:title>
     </cc:Agent>
    </dc:creator>
   </cc:Work>
  </rdf:RDF>
 </metadata>
 <defs>
  <style type="text/css">*{stroke-linejoin: round; stroke-linecap: butt}</style>
 </defs>
 <g id="figure_1">
  <g id="patch_1">
   <path d="M 0 396 
L 864 396 
L 864 0 
L 0 0 
z
" style="fill: #ffffff"/>
  </g>
  <g id="axes_1">
   <g id="patch_2">
    <path d="M 173.52 199.8 
Q 193.32 199.8 210.772129 199.8 
" clip-path="url(#p1702db342b)" style="fill: none; stroke: #4d1434; stroke-width: 2.1; stroke-linecap: round"/>
    <path d="M 203.572129 196.2 
L 210.772129 199.8 
L 203.572129 203.4 
z
" clip-path="url(#p1702db342b)" style="fill: #4d1434; stroke: #4d1434; stroke-width: 2.1; stroke-linecap: round"/>
   </g>
   <g id="patch_3">
    <path d="M 332.64 199.8 
Q 352.44 199.8 369.892129 199.8 
" clip-path="url(#p1702db342b)" style="fill: none; stroke: #4d1434; stroke-width: 2.1; stroke-linecap: round"/>
    <path d="M 362.692129 196.2 
L 369.892129 199.8 
L 362.692129 203.4 
z
" clip-path="url(#p1702db342b)" style="fill: #4d1434; stroke: #4d1434; stroke-width: 2.1; stroke-linecap: round"/>
   </g>
   <g id="patch_4">
    <path d="M 491.76 199.8 
Q 511.56 199.8 529.012129 199.8 
" clip-path="url(#p1702db342b)" style="fill: none; stroke: #4d1434; stroke-width: 2.1; stroke-linecap: round"/>
    <path d="M 521.812129 196.2 
L 529.012129 199.8 
L 521.812129 203.4 
z
" clip-path="url(#p1702db342b)" style="fill: #4d1434; stroke: #4d1434; stroke-width: 2.1; stroke-linecap: round"/>
   </g>
   <g id="patch_5">
    <path d="M 650.88 199.8 
Q 670.68 199.8 688.132129 199.8 
" clip-path="url(#p1702db342b)" style="fill: none; stroke: #4d1434; stroke-width: 2.1; stroke-linecap: round"/>
    <path d="M 680.932129 196.2 
L 688.132129 199.8 
L 680.932129 203.4 
z
" clip-path="url(#p1702db342b)" style="fill: #4d1434; stroke: #4d1434; stroke-width: 2.1; stroke-linecap: round"/>
   </g>
   <g id="patch_6">
    <path d="M 79.2 273.6 
Q 113.76 273.6 145.972129 273.6 
" clip-path="url(#p1702db342b)" style="fill: none; stroke-dasharray: 7.77,3.36; stroke-dashoffset: 0; stroke: #2f7e83; stroke-width: 2.1; stroke-linecap: round"/>
    <path d="M 138.772129 270 
L 145.972129 273.6 
L 138.772129 277.2 
z
" clip-path="url(#p1702db342b)" style="fill: #2f7e83; stroke-dasharray: 7.77,3.36; stroke-dashoffset: 0; stroke: #2f7e83; stroke-width: 2.1; stroke-linecap: round"/>
   </g>
   <g id="patch_7">
    <path d="M 784.8 126 
Q 750.24 126 718.027871 126 
" clip-path="url(#p1702db342b)" style="fill: none; stroke-dasharray: 7.77,3.36; stroke-dashoffset: 0; stroke: #9f541a; stroke-width: 2.1; stroke-linecap: round"/>
    <path d="M 725.227871 129.6 
L 718.027871 126 
L 725.227871 122.4 
z
" clip-path="url(#p1702db342b)" style="fill: #9f541a; stroke-dasharray: 7.77,3.36; stroke-dashoffset: 0; stroke: #9f541a; stroke-width: 2.1; stroke-linecap: round"/>
   </g>
   <g id="patch_8">
    <path d="M 55.44 249.84 
L 172.08 249.84 
Q 174.96 249.84 174.96 246.96 
L 174.96 152.64 
Q 174.96 149.76 172.08 149.76 
L 55.44 149.76 
Q 52.56 149.76 52.56 152.64 
L 52.56 246.96 
Q 52.56 249.84 55.44 249.84 
z
" clip-path="url(#p1702db342b)" style="fill: #e7f1f1; stroke: #2f7e83; stroke-width: 1.8; stroke-linejoin: miter"/>
   </g>
   <g id="patch_9">
    <path d="M 214.56 249.84 
L 331.2 249.84 
Q 334.08 249.84 334.08 246.96 
L 334.08 152.64 
Q 334.08 149.76 331.2 149.76 
L 214.56 149.76 
Q 211.68 149.76 211.68 152.64 
L 211.68 246.96 
Q 211.68 249.84 214.56 249.84 
z
" clip-path="url(#p1702db342b)" style="fill: #e7f1f1; stroke: #2f7e83; stroke-width: 1.8; stroke-linejoin: miter"/>
   </g>
   <g id="patch_10">
    <path d="M 373.68 249.84 
L 490.32 249.84 
Q 493.2 249.84 493.2 246.96 
L 493.2 152.64 
Q 493.2 149.76 490.32 149.76 
L 373.68 149.76 
Q 370.8 149.76 370.8 152.64 
L 370.8 246.96 
Q 370.8 249.84 373.68 249.84 
z
" clip-path="url(#p1702db342b)" style="fill: #e7f1f1; stroke: #2f7e83; stroke-width: 1.8; stroke-linejoin: miter"/>
   </g>
   <g id="patch_11">
    <path d="M 532.8 249.84 
L 649.44 249.84 
Q 652.32 249.84 652.32 246.96 
L 652.32 152.64 
Q 652.32 149.76 649.44 149.76 
L 532.8 149.76 
Q 529.92 149.76 529.92 152.64 
L 529.92 246.96 
Q 529.92 249.84 532.8 249.84 
z
" clip-path="url(#p1702db342b)" style="fill: #e7f1f1; stroke: #2f7e83; stroke-width: 1.8; stroke-linejoin: miter"/>
   </g>
   <g id="patch_12">
    <path d="M 691.92 249.84 
L 808.56 249.84 
Q 811.44 249.84 811.44 246.96 
L 811.44 152.64 
Q 811.44 149.76 808.56 149.76 
L 691.92 149.76 
Q 689.04 149.76 689.04 152.64 
L 689.04 246.96 
Q 689.04 249.84 691.92 249.84 
z
" clip-path="url(#p1702db342b)" style="fill: #f8ede2; stroke: #9f541a; stroke-width: 1.8; stroke-linejoin: miter"/>
   </g>
   <g id="text_1">
    <text style="fill: #3d3d3d; font: 700 32px 'Calibri', 'Arial', 'DejaVu Sans', sans-serif; text-anchor: middle" x="113.76" y="205.83" transform="rotate(-0 113.76 205.83)">Fuente</text>
   </g>
   <g id="text_2">
    <text style="fill: #3d3d3d; font: 700 32px 'Calibri', 'Arial', 'DejaVu Sans', sans-serif" transform="translate(231.298125 194.324063)">Variable</text>
    <text style="fill: #3d3d3d; font: 700 32px 'Calibri', 'Arial', 'DejaVu Sans', sans-serif" transform="translate(249.58875 217.335938)">local</text>
   </g>
   <g id="text_3">
    <text style="fill: #3d3d3d; font: 700 32px 'Calibri', 'Arial', 'DejaVu Sans', sans-serif; text-anchor: middle" x="432" y="205.83" transform="rotate(-0 432 205.83)">Medio</text>
   </g>
   <g id="text_4">
    <text style="fill: #3d3d3d; font: 700 32px 'Calibri', 'Arial', 'DejaVu Sans', sans-serif; text-anchor: middle" x="591.12" y="205.83" transform="rotate(-0 591.12 205.83)">Medición</text>
   </g>
   <g id="text_5">
    <text style="fill: #3d3d3d; font: 700 32px 'Calibri', 'Arial', 'DejaVu Sans', sans-serif; text-anchor: middle" x="750.24" y="205.90125" transform="rotate(-0 750.24 205.90125)">Interpretación</text>
   </g>
   <g id="text_6">
    <g id="patch_13">
     <path d="M 169.12625 188.24 
L 217.51375 188.24 
L 217.51375 168.280625 
L 169.12625 168.280625 
z
" style="fill: #ffffff"/>
    </g>
    <text style="fill: #4d1434; font: 26.667px 'Calibri', 'Arial', 'DejaVu Sans', sans-serif; text-anchor: middle" x="193.32" y="183.28375" transform="rotate(-0 193.32 183.28375)">oscila</text>
   </g>
   <g id="text_7">
    <g id="patch_14">
     <path d="M 315.188437 188.24 
L 389.691562 188.24 
L 389.691562 168.280625 
L 315.188437 168.280625 
z
" style="fill: #ffffff"/>
    </g>
    <text style="fill: #4d1434; font: 26.667px 'Calibri', 'Arial', 'DejaVu Sans', sans-serif; text-anchor: middle" x="352.44" y="183.28375" transform="rotate(-0 352.44 183.28375)">perturba</text>
   </g>
   <g id="text_8">
    <g id="patch_15">
     <path d="M 479.158438 188.24 
L 543.961563 188.24 
L 543.961563 168.280625 
L 479.158438 168.280625 
z
" style="fill: #ffffff"/>
    </g>
    <text style="fill: #4d1434; font: 26.667px 'Calibri', 'Arial', 'DejaVu Sans', sans-serif; text-anchor: middle" x="511.56" y="183.274375" transform="rotate(-0 511.56 183.274375)">registra</text>
   </g>
   <g id="text_9">
    <g id="patch_16">
     <path d="M 637.139375 188.24 
L 704.220625 188.24 
L 704.220625 168.280625 
L 637.139375 168.280625 
z
" style="fill: #ffffff"/>
    </g>
    <text style="fill: #4d1434; font: 26.667px 'Calibri', 'Arial', 'DejaVu Sans', sans-serif; text-anchor: middle" x="670.68" y="183.28375" transform="rotate(-0 670.68 183.28375)">informa</text>
   </g>
   <g id="text_10">
    <g id="patch_17">
     <path d="M 42.00375 299.48 
L 185.51625 299.48 
L 185.51625 279.520625 
L 42.00375 279.520625 
z
" style="fill: #ffffff"/>
    </g>
    <text style="fill: #2f7e83; font: 26.667px 'Calibri', 'Arial', 'DejaVu Sans', sans-serif; text-anchor: middle" x="113.76" y="294.52375" transform="rotate(-0 113.76 294.52375)">movimiento local</text>
   </g>
   <g id="text_11">
    <g id="patch_18">
     <path d="M 687.788437 118.76 
L 812.691562 118.76 
L 812.691562 98.800625 
L 687.788437 98.800625 
z
" style="fill: #ffffff"/>
    </g>
    <text style="fill: #9f541a; font: 26.667px 'Calibri', 'Arial', 'DejaVu Sans', sans-serif; text-anchor: middle" x="750.24" y="113.80375" transform="rotate(-0 750.24 113.80375)">respuesta local</text>
   </g>
   <g id="text_12">
    <text style="fill: #3d3d3d; font: 700 29.333px 'Calibri', 'Arial', 'DejaVu Sans', sans-serif; text-anchor: middle" x="432" y="361.992813" transform="rotate(-0 432 361.992813)">La materia oscila localmente; la perturbación enlaza las etapas.</text>
   </g>
  </g>
 </g>
 <defs>
  <clipPath id="p1702db342b">
   <rect x="0" y="0" width="864" height="396"/>
  </clipPath>
 </defs>
</svg>
